{"glyphs":{"0":{"ha":1289,"x_min":54,"x_max":1234,"o":"m 644 -21 q 184 127 332 -21 q 54 486 54 259 q 184 844 54 713 q 644 993 332 993 q 1103 844 956 993 q 1234 486 1234 713 q 1103 127 1234 259 q 644 -21 956 -21 m 644 240 q 798 330 756 240 q 825 486 825 390 q 798 643 825 582 q 644 732 756 732 q 490 643 532 732 q 463 486 463 582 q 490 330 463 391 q 644 240 532 240 z "},"1":{"ha":777,"x_min":41,"x_max":668,"o":"m 668 0 l 260 0 l 260 732 l 41 732 l 41 973 l 668 973 l 668 0 z "},"2":{"ha":1288,"x_min":54,"x_max":1234,"o":"m 1198 0 l 54 0 l 54 241 q 104 381 54 326 q 232 471 153 437 q 400 526 310 505 q 574 559 490 546 q 751 599 686 577 q 802 644 802 615 q 797 663 802 653 q 644 732 750 732 q 490 663 538 732 l 57 663 q 142 834 79 760 q 326 951 205 909 q 644 994 446 994 q 962 951 841 994 q 1145 834 1082 909 q 1230 663 1208 760 q 1234 620 1234 640 q 1159 458 1234 522 q 957 362 1084 395 q 707 313 829 330 q 595 295 645 304 q 517 272 546 285 q 488 241 488 260 l 1198 241 l 1198 0 z "},"3":{"ha":1281,"x_min":54,"x_max":1227,"o":"m 641 -21 q 323 21 444 -21 q 139 138 202 64 q 54 309 76 212 l 488 309 q 533 258 488 275 q 641 240 578 240 q 793 309 793 240 q 742 389 793 370 q 575 407 694 407 l 558 407 l 558 565 l 575 565 q 744 583 694 565 q 793 663 793 602 q 641 732 793 732 q 533 714 578 732 q 488 663 488 696 l 54 663 q 139 834 76 760 q 323 950 202 908 q 641 993 444 993 q 968 951 838 993 q 1162 834 1098 909 q 1227 663 1227 760 q 1188 549 1227 597 q 1067 486 1149 502 q 1188 422 1149 469 q 1227 309 1227 374 q 1162 137 1227 212 q 968 21 1098 63 q 641 -21 838 -21 z "},"4":{"ha":1326,"x_min":41,"x_max":1285,"o":"m 1126 0 l 718 0 l 718 241 l 41 241 l 41 481 l 718 973 l 1126 973 l 1126 481 l 1285 481 l 1285 241 l 1126 241 l 1126 0 m 718 481 l 718 677 l 452 481 l 718 481 z "},"5":{"ha":1284,"x_min":54,"x_max":1230,"o":"m 641 -21 q 315 17 440 -21 q 128 118 191 54 q 54 263 66 182 l 464 263 q 641 168 484 168 q 763 191 724 168 q 811 247 801 214 q 822 309 822 279 q 811 371 822 338 q 763 427 801 404 q 641 450 724 450 q 541 436 578 450 q 487 400 505 422 q 464 355 469 379 l 54 355 q 63 393 57 374 l 195 972 l 1145 972 l 1145 732 l 454 732 l 437 625 q 641 638 526 638 q 989 594 860 638 q 1174 475 1118 549 q 1230 309 1230 400 q 1174 143 1230 218 q 989 23 1118 68 q 641 -21 860 -21 z "},"6":{"ha":1289,"x_min":54,"x_max":1234,"o":"m 644 -21 q 295 23 425 -21 q 110 142 166 68 q 54 309 54 217 q 80 626 54 500 q 155 826 105 751 q 279 936 205 901 q 450 982 353 972 q 667 992 547 992 q 925 964 817 992 q 1101 889 1032 936 q 1202 785 1169 842 q 1234 669 1234 728 l 849 669 q 833 721 849 694 q 779 768 818 749 q 667 787 739 787 q 511 743 559 787 q 463 628 463 699 q 644 637 543 637 q 992 593 863 637 q 1178 474 1122 549 q 1234 309 1234 399 q 1178 142 1234 217 q 992 23 1122 68 q 644 -21 863 -21 m 644 168 q 766 191 728 168 q 815 247 804 214 q 825 309 825 279 q 815 370 825 337 q 766 426 804 403 q 644 449 728 449 q 522 426 561 449 q 473 370 484 403 q 463 309 463 337 q 473 247 463 279 q 522 191 484 214 q 644 168 561 168 z "},"7":{"ha":1135,"x_min":41,"x_max":1094,"o":"m 660 0 l 252 0 q 283 220 252 119 q 364 402 315 321 q 469 545 414 484 q 573 649 524 607 q 654 711 623 690 l 686 732 l 41 732 l 41 973 l 1094 973 l 1094 732 l 1050 694 q 941 587 1005 655 q 813 426 877 518 q 704 225 749 334 q 660 0 660 117 z "},"8":{"ha":1289,"x_min":54,"x_max":1234,"o":"m 644 -21 q 295 21 425 -21 q 110 136 166 63 q 54 299 54 208 q 176 522 54 440 q 93 711 93 585 q 118 832 93 779 q 204 920 142 884 q 372 974 265 956 q 644 992 479 992 q 916 974 809 992 q 1084 920 1023 956 q 1171 832 1145 884 q 1196 711 1196 779 q 1113 522 1196 585 q 1234 299 1234 440 q 1178 136 1234 208 q 992 21 1122 63 q 644 -21 863 -21 m 644 581 q 766 596 728 581 q 815 638 804 612 q 825 692 825 663 q 815 747 825 722 q 766 788 804 772 q 644 804 728 804 q 522 788 561 804 q 473 747 484 772 q 463 692 463 722 q 473 638 463 663 q 522 596 484 612 q 644 581 561 581 m 644 206 q 766 222 728 206 q 815 263 804 238 q 825 318 825 289 q 815 373 825 347 q 766 415 804 399 q 644 431 728 431 q 522 415 561 431 q 473 373 484 399 q 463 318 463 347 q 473 263 463 289 q 522 222 484 238 q 644 206 561 206 z "},"9":{"ha":1289,"x_min":54,"x_max":1234,"o":"m 621 -21 q 363 7 471 -21 q 188 82 256 36 q 87 186 119 129 q 54 302 54 244 l 439 302 q 454 250 439 277 q 510 203 470 222 q 621 184 549 184 q 777 229 728 184 q 826 344 826 273 q 644 334 745 334 q 295 378 425 334 q 110 497 166 422 q 54 663 54 572 q 110 829 54 754 q 295 948 166 904 q 644 993 425 993 q 962 948 829 993 q 1164 829 1094 904 q 1234 663 1234 754 q 1211 341 1234 472 q 1124 130 1188 210 q 938 15 1059 50 q 621 -21 817 -21 m 644 523 q 766 546 728 523 q 815 601 804 568 q 826 663 826 634 q 815 725 826 692 q 766 781 804 758 q 644 804 728 804 q 522 781 561 804 q 473 725 484 758 q 463 663 463 692 q 473 601 463 634 q 522 546 484 568 q 644 523 561 523 z "},"\u0000":{"ha":0,"x_min":0,"x_max":0,"o":""}," ":{"ha":345,"x_min":0,"x_max":0,"o":""},"!":{"ha":427,"x_min":54,"x_max":373,"o":"m 307 0 l 120 0 l 120 187 l 307 187 l 307 0 m 307 241 l 120 241 l 54 655 l 54 973 l 373 973 l 373 655 l 307 241 z "},"\"":{"ha":535,"x_min":41,"x_max":494,"o":"m 460 732 l 342 732 l 307 864 l 307 972 l 494 972 l 494 864 l 460 732 m 193 732 l 75 732 l 41 864 l 41 972 l 228 972 l 228 864 l 193 732 z "},"#":{"ha":1267,"x_min":41,"x_max":1226,"o":"m 921 0 l 685 0 l 720 161 l 395 161 l 361 0 l 125 0 l 160 161 l 41 161 l 41 397 l 211 397 l 250 576 l 153 576 l 153 812 l 300 812 l 336 973 l 571 973 l 536 812 l 861 812 l 896 973 l 1131 973 l 1097 812 l 1226 812 l 1226 576 l 1045 576 l 1006 397 l 1113 397 l 1113 161 l 956 161 l 921 0 m 771 397 l 810 576 l 485 576 l 446 397 l 771 397 z "},"$":{"ha":1286,"x_min":54,"x_max":1232,"o":"m 713 -119 l 574 -119 l 574 -20 q 202 82 320 -7 q 56 309 85 170 l 490 309 q 574 248 517 267 l 574 364 q 328 392 454 370 q 123 477 203 415 q 54 626 54 530 q 56 661 54 643 q 202 888 85 800 q 574 990 320 977 l 574 1089 l 713 1089 l 713 990 q 1083 888 966 977 q 1230 661 1201 800 l 796 661 q 713 721 768 703 l 713 611 q 960 580 834 604 q 1166 494 1086 556 q 1232 349 1232 441 q 1230 309 1232 330 q 1083 82 1201 170 q 713 -20 966 -7 l 713 -119 m 574 622 l 574 722 q 490 661 517 703 q 486 652 486 656 q 574 622 486 631 m 713 249 q 796 309 768 267 q 800 321 800 315 q 713 354 800 345 l 713 249 z "},"%":{"ha":1658,"x_min":54,"x_max":1604,"o":"m 1282 -21 q 1092 16 1162 -21 q 991 117 1021 54 q 960 256 960 180 q 991 395 960 332 q 1092 495 1021 458 q 1282 532 1162 532 q 1472 495 1402 532 q 1573 395 1543 458 q 1604 256 1604 332 q 1573 117 1604 180 q 1472 16 1543 54 q 1282 -21 1402 -21 m 1282 121 q 1381 256 1381 121 q 1375 312 1381 280 q 1349 367 1369 343 q 1282 390 1328 390 q 1183 256 1183 390 q 1188 200 1183 231 q 1215 145 1194 168 q 1282 121 1236 121 m 376 439 q 186 477 256 439 q 85 577 115 514 q 54 716 54 640 q 85 855 54 792 q 186 956 115 918 q 376 993 256 993 q 566 956 496 993 q 667 855 637 918 q 698 716 698 792 q 667 577 698 640 q 566 477 637 514 q 376 439 496 439 m 376 582 q 475 716 475 582 q 470 772 475 741 q 443 827 464 804 q 376 850 422 850 q 277 716 277 850 q 283 660 277 692 q 310 605 289 629 q 376 582 331 582 m 727 -1 l 480 -1 l 932 972 l 1179 972 l 727 -1 z "},"&":{"ha":1626,"x_min":54,"x_max":1586,"o":"m 1373 -21 l 1586 148 q 1516 176 1543 164 l 1368 247 q 1431 330 1409 295 q 1477 425 1453 366 l 1170 472 q 1118 385 1148 426 q 903 517 1006 446 q 1076 603 1027 574 q 1159 678 1124 632 q 1193 774 1193 724 q 1081 928 1193 864 q 730 993 968 993 q 381 925 496 993 q 266 753 266 857 q 295 655 266 703 q 401 543 324 608 q 135 417 216 492 q 54 258 54 342 q 193 61 54 142 q 614 -21 331 -21 q 937 8 795 -21 q 1141 77 1039 30 q 1253 29 1191 57 q 1373 -21 1316 1 m 662 154 q 504 192 565 154 q 443 279 443 230 q 469 338 443 310 q 577 406 496 366 q 899 210 773 277 q 662 154 768 154 m 718 644 q 611 764 611 723 q 649 822 611 798 q 746 846 686 846 q 842 824 807 846 q 877 770 877 802 q 835 707 877 741 q 718 644 793 673 z "},"'":{"ha":269,"x_min":41,"x_max":228,"o":"m 193 732 l 75 732 l 41 864 l 41 972 l 228 972 l 228 864 l 193 732 z "},"(":{"ha":559,"x_min":54,"x_max":549,"o":"m 549 -164 l 385 -164 q 54 404 54 20 q 385 972 54 788 l 549 972 q 400 743 447 870 q 353 404 354 616 q 400 65 354 193 q 549 -164 447 -62 z "},")":{"ha":559,"x_min":10,"x_max":505,"o":"m 10 -164 q 158 65 111 -62 q 206 404 205 193 q 158 743 205 616 q 10 972 111 870 l 174 972 q 505 404 505 788 q 174 -164 505 20 l 10 -164 z "},"*":{"ha":334,"x_min":41,"x_max":293,"o":"m 214 732 l 264 769 l 215 835 l 293 860 l 272 918 l 196 889 l 199 972 l 135 972 l 137 889 l 60 918 l 41 860 l 119 835 l 68 769 l 118 732 l 165 801 l 214 732 z "},"+":{"ha":705,"x_min":41,"x_max":665,"o":"m 433 175 l 272 175 l 272 401 l 41 401 l 41 564 l 272 564 l 272 798 l 433 798 l 433 564 l 665 564 l 665 401 l 433 401 l 433 175 z "},",":{"ha":228,"x_min":20,"x_max":208,"o":"m 20 -177 l 20 -83 q 94 -61 74 -83 q 114 0 114 -38 l 20 0 l 20 187 l 208 187 l 208 0 q 180 -109 208 -71 q 111 -162 153 -147 q 20 -177 68 -177 z "},"-":{"ha":705,"x_min":41,"x_max":665,"o":"m 41 401 l 41 564 l 665 564 l 665 401 l 41 401 z "},".":{"ha":228,"x_min":20,"x_max":208,"o":"m 208 0 l 20 0 l 20 187 l 208 187 l 208 0 z "},"/":{"ha":720,"x_min":9,"x_max":709,"o":"m 256 -1 l 9 -1 l 461 972 l 709 972 l 256 -1 z "},":":{"ha":269,"x_min":41,"x_max":228,"o":"m 228 575 l 41 575 l 41 762 l 228 762 l 228 575 m 228 236 l 41 236 l 41 423 l 228 423 l 228 236 z "},";":{"ha":269,"x_min":41,"x_max":228,"o":"m 228 575 l 41 575 l 41 762 l 228 762 l 228 575 m 41 59 l 41 153 q 114 175 94 153 q 134 236 134 198 l 41 236 l 41 423 l 228 423 l 228 236 q 201 126 228 165 q 131 74 174 88 q 41 59 87 59 z "},"<":{"ha":494,"x_min":41,"x_max":454,"o":"m 454 290 l 41 444 l 41 529 l 454 684 l 454 581 l 209 487 l 454 392 l 454 290 z "},"=":{"ha":705,"x_min":41,"x_max":665,"o":"m 41 537 l 41 699 l 665 699 l 665 537 l 41 537 m 41 266 l 41 428 l 665 428 l 665 266 l 41 266 z "},">":{"ha":494,"x_min":41,"x_max":454,"o":"m 41 290 l 41 392 l 286 487 l 41 581 l 41 684 l 454 529 l 454 444 l 41 290 z "},"?":{"ha":1126,"x_min":54,"x_max":1072,"o":"m 678 0 l 491 0 l 491 187 l 678 187 l 678 0 m 678 241 l 491 241 q 518 399 491 340 q 585 492 545 458 q 663 548 624 526 q 728 595 702 570 q 755 671 755 620 q 745 732 755 701 q 696 787 736 764 q 564 810 656 810 q 431 792 471 810 q 381 741 391 774 q 372 663 372 707 l 54 663 q 99 857 54 784 q 255 961 144 929 q 564 994 366 994 q 872 959 761 994 q 1027 851 983 924 q 1072 663 1072 778 q 1016 548 1070 589 q 889 474 962 506 q 788 421 836 450 q 709 350 741 393 q 678 241 678 307 z "},"@":{"ha":1362,"x_min":54,"x_max":1308,"o":"m 713 -21 q 976 16 861 -21 q 1227 130 1091 52 l 1164 196 q 724 63 957 63 q 332 174 489 63 q 175 472 175 285 q 334 784 175 660 q 734 909 492 909 q 1061 822 937 909 q 1185 594 1185 734 q 1128 414 1185 494 q 999 334 1072 334 q 940 387 940 334 q 948 428 940 401 l 1063 743 l 878 743 l 858 686 q 685 768 811 768 q 446 670 548 768 q 343 440 343 572 q 407 286 343 344 q 574 227 471 227 q 798 341 718 227 q 950 231 819 231 q 1139 287 1054 231 q 1265 422 1223 342 q 1308 583 1308 502 q 1226 806 1308 711 q 1016 947 1145 901 q 732 993 886 993 q 250 844 446 993 q 54 476 54 694 q 245 117 54 254 q 713 -21 437 -21 m 636 334 q 559 424 559 334 q 610 574 559 488 q 732 660 660 660 q 784 644 764 660 q 804 602 804 627 q 742 417 804 547 q 636 334 700 334 z "},"A":{"ha":1645,"x_min":10,"x_max":1634,"o":"m 1634 0 l 1221 0 l 1129 159 l 515 159 l 424 0 l 10 0 l 633 972 l 1012 972 l 1634 0 m 991 400 l 823 695 l 653 400 l 991 400 z "},"B":{"ha":1558,"x_min":109,"x_max":1503,"o":"m 806 0 l 109 0 l 109 972 l 821 972 q 1134 955 1011 972 q 1323 901 1257 938 q 1413 807 1390 864 q 1437 671 1437 750 q 1403 567 1435 608 q 1328 506 1371 526 q 1252 486 1284 486 q 1326 474 1284 486 q 1410 437 1369 461 q 1477 380 1450 414 q 1503 302 1503 346 q 1490 198 1503 245 q 1437 114 1477 151 q 1320 52 1398 77 q 1118 13 1243 26 q 806 0 993 0 m 783 570 q 922 578 873 570 q 990 605 971 587 q 1009 651 1009 623 q 990 697 1009 680 q 922 724 971 715 q 783 732 873 732 l 517 732 l 517 570 l 783 570 m 783 240 q 932 245 875 240 q 1015 267 989 250 q 1042 321 1042 283 q 1015 377 1042 359 q 932 398 989 394 q 783 403 875 403 l 517 403 l 517 240 l 783 240 z "},"C":{"ha":1457,"x_min":54,"x_max":1402,"o":"m 736 -21 q 205 127 375 -21 q 54 486 54 258 q 205 844 54 713 q 736 992 375 992 q 1086 944 947 992 q 1301 811 1224 895 q 1402 618 1377 727 l 973 618 q 736 732 909 732 q 518 646 588 732 q 463 486 463 578 q 518 325 463 393 q 736 239 588 239 q 973 353 909 239 l 1402 353 q 1301 160 1377 244 q 1086 27 1224 76 q 736 -21 947 -21 z "},"D":{"ha":1558,"x_min":109,"x_max":1503,"o":"m 760 0 l 109 0 l 109 973 l 760 973 q 1334 861 1159 973 q 1495 616 1475 771 q 1503 486 1503 549 q 1495 357 1503 425 q 1450 226 1487 290 q 1334 112 1413 163 q 1115 31 1254 61 q 760 0 977 0 m 721 241 q 1073 398 1032 241 q 1084 486 1084 442 q 1073 575 1084 531 q 1025 654 1061 618 q 916 711 989 690 q 721 732 844 732 l 517 732 l 517 241 l 721 241 z "},"E":{"ha":1335,"x_min":109,"x_max":1280,"o":"m 1280 0 l 109 0 l 109 973 l 1227 973 l 1227 732 l 517 732 l 517 580 l 1117 580 l 1117 393 l 517 393 l 517 241 l 1280 241 l 1280 0 z "},"F":{"ha":1281,"x_min":109,"x_max":1227,"o":"m 517 0 l 109 0 l 109 973 l 1227 973 l 1227 732 l 517 732 l 517 580 l 1117 580 l 1117 393 l 517 393 l 517 0 z "},"G":{"ha":1479,"x_min":54,"x_max":1398,"o":"m 736 -21 q 205 127 375 -21 q 54 486 54 259 q 205 844 54 713 q 736 993 375 993 q 1078 947 941 993 q 1292 821 1214 901 q 1398 637 1369 741 l 961 637 q 736 732 892 732 q 518 647 588 732 q 463 486 463 578 q 518 325 463 393 q 736 240 588 240 q 915 261 855 240 q 1003 315 975 281 l 844 315 l 844 486 l 1398 486 l 1398 -1 l 1228 -1 l 1194 94 q 736 -21 1031 -21 z "},"H":{"ha":1546,"x_min":109,"x_max":1438,"o":"m 1438 0 l 1029 0 l 1029 393 l 517 393 l 517 0 l 109 0 l 109 973 l 517 973 l 517 580 l 1029 580 l 1029 973 l 1438 973 l 1438 0 z "},"I":{"ha":625,"x_min":109,"x_max":517,"o":"m 517 0 l 109 0 l 109 973 l 517 973 l 517 0 z "},"J":{"ha":1349,"x_min":41,"x_max":1288,"o":"m 664 -21 q 163 127 308 -21 q 41 486 41 251 l 449 486 q 484 325 449 384 q 664 240 533 240 q 845 325 796 240 q 880 486 880 386 l 880 972 l 1288 972 l 1288 480 q 1166 127 1288 251 q 664 -21 1021 -21 z "},"K":{"ha":1716,"x_min":109,"x_max":1706,"o":"m 1706 0 l 1176 0 l 758 326 l 517 161 l 517 0 l 109 0 l 109 973 l 517 973 l 517 523 l 1172 973 l 1706 973 l 1009 497 l 1706 0 z "},"L":{"ha":1272,"x_min":109,"x_max":1244,"o":"m 1244 0 l 109 0 l 109 973 l 517 973 l 517 241 l 1244 241 l 1244 0 z "},"M":{"ha":2067,"x_min":109,"x_max":1959,"o":"m 1959 0 l 1550 0 l 1550 621 l 1185 0 l 881 0 l 517 621 l 517 0 l 109 0 l 109 973 l 593 973 l 1034 278 l 1473 973 l 1959 973 l 1959 0 z "},"N":{"ha":1661,"x_min":109,"x_max":1552,"o":"m 1552 0 l 1067 0 l 517 659 l 517 0 l 109 0 l 109 973 l 594 973 l 1144 318 l 1144 973 l 1552 973 l 1552 0 z "},"O":{"ha":1472,"x_min":54,"x_max":1417,"o":"m 736 -21 q 205 127 375 -21 q 54 486 54 259 q 205 844 54 713 q 736 993 375 993 q 1267 844 1097 993 q 1417 486 1417 713 q 1267 127 1417 259 q 736 -21 1097 -21 m 736 240 q 953 325 884 240 q 1008 486 1008 393 q 953 647 1008 579 q 736 732 884 732 q 518 647 588 732 q 463 486 463 579 q 518 325 463 393 q 736 240 588 240 z "},"P":{"ha":1491,"x_min":109,"x_max":1437,"o":"m 517 0 l 109 0 l 109 973 l 772 973 q 1157 938 1010 973 q 1370 826 1303 902 q 1437 627 1437 749 q 1370 428 1437 505 q 1157 316 1303 352 q 772 281 1010 281 l 517 281 l 517 0 m 517 521 l 750 522 q 904 529 848 522 q 987 551 960 537 q 1021 585 1014 566 q 1029 627 1029 604 q 1021 669 1029 650 q 987 703 1014 688 q 904 725 960 717 q 750 732 848 732 l 517 732 l 517 521 z "},"Q":{"ha":1472,"x_min":54,"x_max":1417,"o":"m 1069 -70 q 964 -1 1012 -55 q 736 -20 864 -20 q 205 129 375 -20 q 54 488 54 260 q 205 846 54 714 q 736 994 375 994 q 1267 846 1097 994 q 1417 488 1417 714 q 1213 90 1417 222 q 1311 38 1265 52 l 1069 -70 m 736 241 q 791 245 766 241 q 708 329 752 299 l 826 397 q 948 320 881 378 q 1008 488 1008 389 q 953 648 1008 581 q 736 733 884 733 q 518 648 588 733 q 463 488 463 581 q 518 326 463 394 q 736 241 588 241 z "},"R":{"ha":1491,"x_min":109,"x_max":1437,"o":"m 1437 0 l 1051 0 q 1014 94 1025 37 q 985 180 1004 138 q 920 251 966 222 q 782 281 873 279 l 517 281 l 517 0 l 109 0 l 109 973 l 772 973 q 1157 938 1010 973 q 1370 826 1303 902 q 1437 627 1437 749 q 1391 454 1437 524 q 1244 344 1344 385 q 1370 248 1341 304 q 1405 125 1398 192 q 1437 0 1412 65 m 517 521 l 750 522 q 904 530 848 522 q 987 554 960 539 q 1021 588 1014 570 q 1029 627 1029 607 q 1021 665 1029 646 q 987 700 1014 684 q 904 724 960 715 q 750 732 848 732 l 517 732 l 517 521 z "},"S":{"ha":1287,"x_min":54,"x_max":1233,"o":"m 643 -21 q 325 21 446 -21 q 141 138 204 64 q 56 309 78 212 l 490 309 q 643 240 538 240 q 796 309 748 240 q 800 321 800 316 q 752 349 800 340 q 607 363 703 358 q 352 389 486 368 q 54 628 54 435 q 56 663 54 644 q 141 834 78 760 q 325 950 204 908 q 643 993 446 993 q 961 950 840 993 q 1145 834 1082 908 q 1230 663 1208 760 l 796 663 q 643 732 748 732 q 490 663 538 732 q 486 652 486 657 q 533 628 486 636 q 670 615 579 621 q 863 597 760 610 q 1054 555 965 585 q 1194 466 1143 525 q 1233 351 1233 420 q 1230 309 1233 331 q 1145 138 1208 212 q 961 21 1082 64 q 643 -21 840 -21 z "},"T":{"ha":1252,"x_min":41,"x_max":1211,"o":"m 830 0 l 422 0 l 422 732 l 41 732 l 41 973 l 1211 973 l 1211 732 l 830 732 l 830 0 z "},"U":{"ha":1369,"x_min":61,"x_max":1308,"o":"m 684 -21 q 183 127 328 -21 q 61 486 61 251 l 61 972 l 469 972 l 469 486 q 504 325 469 384 q 684 240 553 240 q 865 325 817 240 q 900 486 900 386 l 900 972 l 1308 972 l 1308 480 q 1187 127 1308 251 q 684 -21 1041 -21 z "},"V":{"ha":1490,"x_min":10,"x_max":1480,"o":"m 935 0 l 555 0 l 10 972 l 424 972 l 745 277 l 1066 972 l 1480 972 l 935 0 z "},"W":{"ha":2117,"x_min":10,"x_max":2107,"o":"m 1639 0 l 1299 0 l 1059 632 l 819 0 l 478 0 l 10 972 l 424 972 l 668 355 l 930 972 l 1187 972 l 1449 355 l 1693 972 l 2107 972 l 1639 0 z "},"X":{"ha":1413,"x_min":10,"x_max":1402,"o":"m 1402 0 l 989 0 l 707 298 l 424 0 l 10 0 l 517 498 l 10 972 l 424 972 l 707 694 l 989 972 l 1402 972 l 896 498 l 1402 0 z "},"Y":{"ha":1490,"x_min":10,"x_max":1480,"o":"m 949 0 l 541 0 l 541 461 l 10 973 l 463 973 l 745 682 l 1027 973 l 1480 973 l 949 461 l 949 0 z "},"Z":{"ha":1246,"x_min":61,"x_max":1185,"o":"m 1185 0 l 61 0 l 61 240 l 705 732 l 61 732 l 61 972 l 1185 972 l 1185 732 l 541 240 l 1185 240 l 1185 0 z "},"[":{"ha":723,"x_min":109,"x_max":713,"o":"m 713 -163 l 109 -163 l 109 972 l 713 972 l 713 809 l 439 809 l 439 0 l 713 0 l 713 -163 z "},"\\":{"ha":720,"x_min":9,"x_max":709,"o":"m 461 -1 l 9 972 l 256 972 l 709 -1 l 461 -1 z "},"]":{"ha":723,"x_min":10,"x_max":614,"o":"m 10 -163 l 10 0 l 283 0 l 283 809 l 10 809 l 10 972 l 614 972 l 614 -163 l 10 -163 z "},"^":{"ha":459,"x_min":40,"x_max":418,"o":"m 40 644 l 189 972 l 270 972 l 418 644 l 320 644 l 229 839 l 138 644 l 40 644 z "},"_":{"ha":868,"x_min":20,"x_max":848,"o":"m 20 -94 l 20 0 l 848 0 l 848 -94 l 20 -94 z "},"`":{"ha":414,"x_min":20,"x_max":393,"o":"m 393 731 l 222 731 l 20 972 l 305 972 l 393 731 z "},"a":{"ha":1645,"x_min":10,"x_max":1634,"o":"m 1634 0 l 1221 0 l 1129 159 l 515 159 l 424 0 l 10 0 l 633 972 l 1012 972 l 1634 0 m 991 400 l 823 695 l 653 400 l 991 400 z "},"b":{"ha":1558,"x_min":109,"x_max":1503,"o":"m 806 0 l 109 0 l 109 972 l 821 972 q 1134 955 1011 972 q 1323 901 1257 938 q 1413 807 1390 864 q 1437 671 1437 750 q 1403 567 1435 608 q 1328 506 1371 526 q 1252 486 1284 486 q 1326 474 1284 486 q 1410 437 1369 461 q 1477 380 1450 414 q 1503 302 1503 346 q 1490 198 1503 245 q 1437 114 1477 151 q 1320 52 1398 77 q 1118 13 1243 26 q 806 0 993 0 m 783 570 q 922 578 873 570 q 990 605 971 587 q 1009 651 1009 623 q 990 697 1009 680 q 922 724 971 715 q 783 732 873 732 l 517 732 l 517 570 l 783 570 m 783 240 q 932 245 875 240 q 1015 267 989 250 q 1042 321 1042 283 q 1015 377 1042 359 q 932 398 989 394 q 783 403 875 403 l 517 403 l 517 240 l 783 240 z "},"c":{"ha":1457,"x_min":54,"x_max":1402,"o":"m 736 -21 q 205 127 375 -21 q 54 486 54 258 q 205 844 54 713 q 736 992 375 992 q 1086 944 947 992 q 1301 811 1224 895 q 1402 618 1377 727 l 973 618 q 736 732 909 732 q 518 646 588 732 q 463 486 463 578 q 518 325 463 393 q 736 239 588 239 q 973 353 909 239 l 1402 353 q 1301 160 1377 244 q 1086 27 1224 76 q 736 -21 947 -21 z "},"d":{"ha":1558,"x_min":109,"x_max":1503,"o":"m 760 0 l 109 0 l 109 973 l 760 973 q 1334 861 1159 973 q 1495 616 1475 771 q 1503 486 1503 549 q 1495 357 1503 425 q 1450 226 1487 290 q 1334 112 1413 163 q 1115 31 1254 61 q 760 0 977 0 m 721 241 q 1073 398 1032 241 q 1084 486 1084 442 q 1073 575 1084 531 q 1025 654 1061 618 q 916 711 989 690 q 721 732 844 732 l 517 732 l 517 241 l 721 241 z "},"e":{"ha":1335,"x_min":109,"x_max":1280,"o":"m 1280 0 l 109 0 l 109 973 l 1227 973 l 1227 732 l 517 732 l 517 580 l 1117 580 l 1117 393 l 517 393 l 517 241 l 1280 241 l 1280 0 z "},"f":{"ha":1281,"x_min":109,"x_max":1227,"o":"m 517 0 l 109 0 l 109 973 l 1227 973 l 1227 732 l 517 732 l 517 580 l 1117 580 l 1117 393 l 517 393 l 517 0 z "},"g":{"ha":1479,"x_min":54,"x_max":1398,"o":"m 736 -21 q 205 127 375 -21 q 54 486 54 259 q 205 844 54 713 q 736 993 375 993 q 1078 947 941 993 q 1292 821 1214 901 q 1398 637 1369 741 l 961 637 q 736 732 892 732 q 518 647 588 732 q 463 486 463 578 q 518 325 463 393 q 736 240 588 240 q 915 261 855 240 q 1003 315 975 281 l 844 315 l 844 486 l 1398 486 l 1398 -1 l 1228 -1 l 1194 94 q 736 -21 1031 -21 z "},"h":{"ha":1546,"x_min":109,"x_max":1438,"o":"m 1438 0 l 1029 0 l 1029 393 l 517 393 l 517 0 l 109 0 l 109 973 l 517 973 l 517 580 l 1029 580 l 1029 973 l 1438 973 l 1438 0 z "},"i":{"ha":625,"x_min":109,"x_max":517,"o":"m 517 0 l 109 0 l 109 973 l 517 973 l 517 0 z "},"j":{"ha":1349,"x_min":41,"x_max":1288,"o":"m 664 -21 q 163 127 308 -21 q 41 486 41 251 l 449 486 q 484 325 449 384 q 664 240 533 240 q 845 325 796 240 q 880 486 880 386 l 880 972 l 1288 972 l 1288 480 q 1166 127 1288 251 q 664 -21 1021 -21 z "},"k":{"ha":1716,"x_min":109,"x_max":1706,"o":"m 1706 0 l 1176 0 l 758 326 l 517 161 l 517 0 l 109 0 l 109 973 l 517 973 l 517 523 l 1172 973 l 1706 973 l 1009 497 l 1706 0 z "},"l":{"ha":1272,"x_min":109,"x_max":1244,"o":"m 1244 0 l 109 0 l 109 973 l 517 973 l 517 241 l 1244 241 l 1244 0 z "},"m":{"ha":2067,"x_min":109,"x_max":1959,"o":"m 1959 0 l 1550 0 l 1550 621 l 1185 0 l 881 0 l 517 621 l 517 0 l 109 0 l 109 973 l 593 973 l 1034 278 l 1473 973 l 1959 973 l 1959 0 z "},"n":{"ha":1661,"x_min":109,"x_max":1552,"o":"m 1552 0 l 1067 0 l 517 659 l 517 0 l 109 0 l 109 973 l 594 973 l 1144 318 l 1144 973 l 1552 973 l 1552 0 z "},"o":{"ha":1472,"x_min":54,"x_max":1417,"o":"m 736 -21 q 205 127 375 -21 q 54 486 54 259 q 205 844 54 713 q 736 993 375 993 q 1267 844 1097 993 q 1417 486 1417 713 q 1267 127 1417 259 q 736 -21 1097 -21 m 736 240 q 953 325 884 240 q 1008 486 1008 393 q 953 647 1008 579 q 736 732 884 732 q 518 647 588 732 q 463 486 463 579 q 518 325 463 393 q 736 240 588 240 z "},"p":{"ha":1491,"x_min":109,"x_max":1437,"o":"m 517 0 l 109 0 l 109 973 l 772 973 q 1157 938 1010 973 q 1370 826 1303 902 q 1437 627 1437 749 q 1370 428 1437 505 q 1157 316 1303 352 q 772 281 1010 281 l 517 281 l 517 0 m 517 521 l 750 522 q 904 529 848 522 q 987 551 960 537 q 1021 585 1014 566 q 1029 627 1029 604 q 1021 669 1029 650 q 987 703 1014 688 q 904 725 960 717 q 750 732 848 732 l 517 732 l 517 521 z "},"q":{"ha":1472,"x_min":54,"x_max":1417,"o":"m 1069 -70 q 964 -1 1012 -55 q 736 -20 864 -20 q 205 129 375 -20 q 54 488 54 260 q 205 846 54 714 q 736 994 375 994 q 1267 846 1097 994 q 1417 488 1417 714 q 1213 90 1417 222 q 1311 38 1265 52 l 1069 -70 m 736 241 q 791 245 766 241 q 708 329 752 299 l 826 397 q 948 320 881 378 q 1008 488 1008 389 q 953 648 1008 581 q 736 733 884 733 q 518 648 588 733 q 463 488 463 581 q 518 326 463 394 q 736 241 588 241 z "},"r":{"ha":1491,"x_min":109,"x_max":1437,"o":"m 1437 0 l 1051 0 q 1014 94 1025 37 q 985 180 1004 138 q 920 251 966 222 q 782 281 873 279 l 517 281 l 517 0 l 109 0 l 109 973 l 772 973 q 1157 938 1010 973 q 1370 826 1303 902 q 1437 627 1437 749 q 1391 454 1437 524 q 1244 344 1344 385 q 1370 248 1341 304 q 1405 125 1398 192 q 1437 0 1412 65 m 517 521 l 750 522 q 904 530 848 522 q 987 554 960 539 q 1021 588 1014 570 q 1029 627 1029 607 q 1021 665 1029 646 q 987 700 1014 684 q 904 724 960 715 q 750 732 848 732 l 517 732 l 517 521 z "},"s":{"ha":1287,"x_min":54,"x_max":1233,"o":"m 643 -21 q 325 21 446 -21 q 141 138 204 64 q 56 309 78 212 l 490 309 q 643 240 538 240 q 796 309 748 240 q 800 321 800 316 q 752 349 800 340 q 607 363 703 358 q 352 389 486 368 q 54 628 54 435 q 56 663 54 644 q 141 834 78 760 q 325 950 204 908 q 643 993 446 993 q 961 950 840 993 q 1145 834 1082 908 q 1230 663 1208 760 l 796 663 q 643 732 748 732 q 490 663 538 732 q 486 652 486 657 q 533 628 486 636 q 670 615 579 621 q 863 597 760 610 q 1054 555 965 585 q 1194 466 1143 525 q 1233 351 1233 420 q 1230 309 1233 331 q 1145 138 1208 212 q 961 21 1082 64 q 643 -21 840 -21 z "},"t":{"ha":1252,"x_min":41,"x_max":1211,"o":"m 830 0 l 422 0 l 422 732 l 41 732 l 41 973 l 1211 973 l 1211 732 l 830 732 l 830 0 z "},"u":{"ha":1369,"x_min":61,"x_max":1308,"o":"m 684 -21 q 183 127 328 -21 q 61 486 61 251 l 61 972 l 469 972 l 469 486 q 504 325 469 384 q 684 240 553 240 q 865 325 817 240 q 900 486 900 386 l 900 972 l 1308 972 l 1308 480 q 1187 127 1308 251 q 684 -21 1041 -21 z "},"v":{"ha":1490,"x_min":10,"x_max":1480,"o":"m 935 0 l 555 0 l 10 972 l 424 972 l 745 277 l 1066 972 l 1480 972 l 935 0 z "},"w":{"ha":2117,"x_min":10,"x_max":2107,"o":"m 1639 0 l 1299 0 l 1059 632 l 819 0 l 478 0 l 10 972 l 424 972 l 668 355 l 930 972 l 1187 972 l 1449 355 l 1693 972 l 2107 972 l 1639 0 z "},"x":{"ha":1413,"x_min":10,"x_max":1402,"o":"m 1402 0 l 989 0 l 707 298 l 424 0 l 10 0 l 517 498 l 10 972 l 424 972 l 707 694 l 989 972 l 1402 972 l 896 498 l 1402 0 z "},"y":{"ha":1490,"x_min":10,"x_max":1480,"o":"m 949 0 l 541 0 l 541 461 l 10 973 l 463 973 l 745 682 l 1027 973 l 1480 973 l 949 461 l 949 0 z "},"z":{"ha":1246,"x_min":61,"x_max":1185,"o":"m 1185 0 l 61 0 l 61 240 l 705 732 l 61 732 l 61 972 l 1185 972 l 1185 732 l 541 240 l 1185 240 l 1185 0 z "},"{":{"ha":572,"x_min":20,"x_max":562,"o":"m 562 -163 l 366 -163 q 266 -142 302 -163 q 212 -85 229 -121 q 189 -6 195 -50 q 182 85 184 38 q 171 197 180 144 q 129 283 161 250 q 20 317 96 317 l 20 493 q 129 527 96 493 q 171 613 161 560 q 182 725 180 665 q 189 815 184 771 q 212 895 195 859 q 266 951 229 930 q 366 972 302 972 l 562 972 l 562 810 q 446 778 478 810 q 408 699 413 747 q 406 649 406 675 q 408 598 406 624 q 411 549 411 572 q 402 467 411 511 q 328 405 393 422 q 402 334 391 387 q 409 264 409 302 q 407 216 409 241 q 404 167 404 191 q 408 101 404 139 q 446 32 412 63 q 562 0 479 1 l 562 -163 z "},"|":{"ha":381,"x_min":54,"x_max":327,"o":"m 327 0 l 54 0 l 54 973 l 327 973 l 327 0 z "},"}":{"ha":572,"x_min":10,"x_max":552,"o":"m 10 -163 l 10 0 q 127 32 93 1 q 164 101 161 63 q 168 167 168 139 q 166 216 168 191 q 163 264 163 241 q 170 334 163 302 q 245 405 181 387 q 171 467 180 422 q 161 549 161 511 q 164 598 161 572 q 167 649 167 624 q 164 699 167 675 q 127 778 159 747 q 10 810 94 810 l 10 972 l 207 972 q 307 951 271 972 q 360 895 343 930 q 383 815 378 859 q 391 725 389 771 q 401 613 392 665 q 444 527 411 560 q 552 493 477 493 l 552 317 q 444 283 477 317 q 401 197 411 250 q 391 85 392 144 q 383 -6 389 38 q 360 -85 378 -50 q 307 -142 343 -121 q 207 -163 271 -163 l 10 -163 z "},"~":{"ha":620,"x_min":41,"x_max":579,"o":"m 460 394 q 324 426 414 394 q 216 452 258 452 q 174 394 176 452 l 41 394 q 131 574 41 551 q 178 579 154 579 q 310 555 224 579 q 402 536 375 536 q 431 542 417 536 q 446 578 446 548 l 579 578 q 494 398 579 418 q 460 394 478 394 z "},"¡":{"ha":427,"x_min":54,"x_max":373,"o":"m 307 973 l 307 785 l 120 785 l 120 973 l 307 973 m 307 732 l 373 318 l 373 0 l 54 0 l 54 318 l 120 732 l 307 732 z "},"¢":{"ha":772,"x_min":0,"x_max":0,"o":""},"£":{"ha":688,"x_min":0,"x_max":0,"o":""},"¤":{"ha":688,"x_min":0,"x_max":0,"o":""},"¥":{"ha":856,"x_min":0,"x_max":0,"o":""},"¦":{"ha":688,"x_min":0,"x_max":0,"o":""},"§":{"ha":688,"x_min":0,"x_max":0,"o":""},"¨":{"ha":694,"x_min":0,"x_max":0,"o":""},"©":{"ha":1122,"x_min":54,"x_max":1068,"o":"m 564 298 q 414 323 470 298 q 335 391 359 349 q 311 486 311 434 q 335 581 311 538 q 414 649 359 623 q 564 674 470 674 q 811 535 781 674 l 652 535 q 564 577 628 577 q 502 562 524 577 q 471 526 479 547 q 463 486 463 505 q 471 446 463 467 q 502 410 479 425 q 564 395 524 395 q 652 437 628 395 l 811 437 q 564 298 781 298 m 561 -21 q 306 47 421 -21 q 123 231 191 116 q 54 486 54 346 q 123 741 54 626 q 306 924 191 856 q 561 993 421 993 q 816 924 701 993 q 1000 741 931 856 q 1068 486 1068 626 q 1000 231 1068 346 q 816 47 931 116 q 561 -21 701 -21 m 561 95 q 758 148 669 95 q 899 289 846 201 q 952 486 952 378 q 899 682 952 593 q 758 824 846 771 q 561 877 669 877 q 365 824 453 877 q 223 682 276 771 q 170 486 170 593 q 223 289 170 378 q 365 148 276 201 q 561 95 453 95 z "},"ª":{"ha":439,"x_min":0,"x_max":0,"o":""},"«":{"ha":597,"x_min":41,"x_max":557,"o":"m 309 290 l 204 290 l 41 487 l 204 684 l 309 684 l 176 487 l 309 290 m 557 290 l 452 290 l 288 487 l 452 684 l 557 684 l 422 487 l 557 290 z "},"¬":{"ha":688,"x_min":0,"x_max":0,"o":""},"®":{"ha":1122,"x_min":54,"x_max":1068,"o":"m 808 305 l 665 305 q 650 340 654 319 q 630 387 646 366 q 565 410 614 408 l 466 410 l 466 305 l 315 305 l 315 666 l 561 666 q 750 636 693 666 q 808 538 808 606 q 736 433 808 462 q 783 397 772 418 q 796 353 793 376 q 808 305 798 330 m 553 499 q 623 505 601 499 q 650 519 645 510 q 656 538 656 528 q 650 556 656 547 q 623 571 645 566 q 553 577 601 577 l 466 577 l 466 498 l 553 499 m 561 -21 q 306 47 421 -21 q 123 231 191 116 q 54 486 54 346 q 123 741 54 626 q 306 924 191 856 q 561 993 421 993 q 816 924 701 993 q 1000 741 931 856 q 1068 486 1068 626 q 1000 231 1068 346 q 816 47 931 116 q 561 -21 701 -21 m 561 95 q 758 148 669 95 q 899 289 846 201 q 952 486 952 378 q 899 682 952 593 q 758 824 846 771 q 561 877 669 877 q 365 824 453 877 q 223 682 276 771 q 170 486 170 593 q 223 289 170 378 q 365 148 276 201 q 561 95 453 95 z "},"¯":{"ha":454,"x_min":0,"x_max":0,"o":""},"°":{"ha":457,"x_min":0,"x_max":0,"o":""},"±":{"ha":688,"x_min":0,"x_max":0,"o":""},"²":{"ha":688,"x_min":0,"x_max":0,"o":""},"³":{"ha":688,"x_min":0,"x_max":0,"o":""},"´":{"ha":694,"x_min":0,"x_max":0,"o":""},"µ":{"ha":800,"x_min":0,"x_max":0,"o":""},"¶":{"ha":694,"x_min":0,"x_max":0,"o":""},"·":{"ha":345,"x_min":0,"x_max":0,"o":""},"¸":{"ha":694,"x_min":0,"x_max":0,"o":""},"¹":{"ha":143,"x_min":0,"x_max":0,"o":""},"º":{"ha":487,"x_min":0,"x_max":0,"o":""},"»":{"ha":597,"x_min":41,"x_max":557,"o":"m 288 290 l 422 487 l 288 684 l 393 684 l 557 487 l 393 290 l 288 290 m 41 290 l 174 487 l 41 684 l 146 684 l 309 487 l 146 290 l 41 290 z "},"¼":{"ha":1158,"x_min":0,"x_max":0,"o":""},"½":{"ha":1332,"x_min":0,"x_max":0,"o":""},"¾":{"ha":1158,"x_min":0,"x_max":0,"o":""},"¿":{"ha":1126,"x_min":54,"x_max":1072,"o":"m 448 972 l 635 972 l 635 785 l 448 785 l 448 972 m 448 732 l 635 732 q 608 573 635 632 q 542 481 581 515 q 464 425 503 447 q 398 377 425 402 q 372 301 372 353 q 381 240 372 272 q 431 186 391 209 q 563 163 471 163 q 696 181 656 163 q 745 232 736 199 q 755 309 755 265 l 1072 309 q 1027 116 1072 189 q 871 11 982 43 q 563 -21 760 -21 q 255 14 366 -21 q 99 121 144 48 q 54 309 54 195 q 111 425 56 383 q 237 498 165 467 q 338 551 290 522 q 417 623 386 580 q 448 732 448 665 z "},"À":{"ha":1645,"x_min":10,"x_max":1634,"o":"m 1634 0 l 1221 0 l 1129 159 l 515 159 l 424 0 l 10 0 l 633 972 l 1012 972 l 1634 0 m 991 400 l 823 695 l 653 400 l 991 400 m 908 1061 l 737 1061 l 534 1302 l 819 1302 l 908 1061 z "},"Á":{"ha":1645,"x_min":10,"x_max":1634,"o":"m 1634 0 l 1221 0 l 1129 159 l 515 159 l 424 0 l 10 0 l 633 972 l 1012 972 l 1634 0 m 991 400 l 823 695 l 653 400 l 991 400 m 908 1061 l 737 1061 l 825 1302 l 1110 1302 l 908 1061 z "},"Â":{"ha":1645,"x_min":10,"x_max":1634,"o":"m 1634 0 l 1221 0 l 1129 159 l 515 159 l 424 0 l 10 0 l 633 972 l 1012 972 l 1634 0 m 991 400 l 823 695 l 653 400 l 991 400 m 1112 1061 l 915 1061 l 823 1163 l 730 1061 l 532 1061 l 738 1302 l 907 1302 l 1112 1061 z "},"Ã":{"ha":1645,"x_min":10,"x_max":1634,"o":"m 1634 0 l 1221 0 l 1129 159 l 515 159 l 424 0 l 10 0 l 633 972 l 1012 972 l 1634 0 m 991 400 l 823 695 l 653 400 l 991 400 m 972 1061 q 837 1093 926 1061 q 729 1118 770 1118 q 686 1061 688 1118 l 553 1061 q 644 1240 553 1217 q 690 1246 666 1246 q 823 1221 737 1246 q 915 1203 888 1203 q 944 1209 929 1203 q 958 1244 958 1215 l 1092 1244 q 1007 1065 1092 1084 q 972 1061 990 1061 z "},"Ä":{"ha":1645,"x_min":10,"x_max":1634,"o":"m 1634 0 l 1221 0 l 1129 159 l 515 159 l 424 0 l 10 0 l 633 972 l 1012 972 l 1634 0 m 991 400 l 823 695 l 653 400 l 991 400 m 680 1061 l 488 1061 l 488 1253 l 680 1253 l 680 1061 m 1157 1061 l 965 1061 l 965 1253 l 1157 1253 l 1157 1061 z "},"Å":{"ha":1645,"x_min":10,"x_max":1634,"o":"m 1634 0 l 1221 0 l 1129 159 l 515 159 l 424 0 l 10 0 l 633 972 l 1012 972 l 1634 0 m 991 400 l 823 695 l 653 400 l 991 400 m 823 994 q 713 1039 758 994 q 668 1147 668 1084 q 713 1257 668 1212 q 823 1302 758 1302 q 931 1257 886 1302 q 977 1147 977 1212 q 931 1039 977 1084 q 823 994 886 994 m 823 1071 q 877 1093 854 1071 q 899 1147 899 1116 q 877 1202 899 1179 q 823 1225 854 1225 q 768 1202 791 1225 q 745 1147 745 1179 q 768 1093 745 1116 q 823 1071 791 1071 z "},"Æ":{"ha":2082,"x_min":10,"x_max":2028,"o":"m 2028 0 l 894 0 l 894 159 l 515 159 l 424 0 l 10 0 l 633 973 l 1973 973 l 1973 732 l 1302 732 l 1302 580 l 1864 580 l 1864 393 l 1302 393 l 1302 241 l 2028 241 l 2028 0 m 894 400 l 894 732 l 844 732 l 653 400 l 894 400 z "},"Ç":{"ha":1457,"x_min":54,"x_max":1402,"o":"m 686 -244 l 673 -244 q 612 -241 640 -244 l 586 -239 l 586 -175 l 605 -178 q 667 -182 636 -182 q 711 -179 687 -182 q 753 -165 734 -176 q 772 -131 772 -154 q 758 -97 772 -107 q 716 -87 744 -87 q 684 -90 701 -87 q 653 -98 667 -94 l 640 -102 l 659 -28 l 668 -26 q 693 -23 677 -24 l 693 -19 q 196 137 353 -9 q 54 488 54 268 q 205 846 54 714 q 736 994 374 994 q 1086 946 947 994 q 1301 813 1224 897 q 1402 620 1377 729 l 973 620 q 736 734 909 734 q 518 648 588 734 q 463 488 463 581 q 518 327 463 395 q 736 241 587 241 q 973 355 909 241 l 1402 355 q 1213 90 1367 193 q 754 -19 1059 -13 l 754 -22 q 809 -34 783 -24 q 853 -68 836 -45 q 870 -131 870 -91 q 841 -200 870 -176 q 770 -234 812 -224 q 686 -244 728 -243 z "},"È":{"ha":1335,"x_min":109,"x_max":1280,"o":"m 1280 0 l 109 0 l 109 973 l 1227 973 l 1227 732 l 517 732 l 517 580 l 1117 580 l 1117 393 l 517 393 l 517 241 l 1280 241 l 1280 0 m 780 1061 l 609 1061 l 407 1302 l 692 1302 l 780 1061 z "},"É":{"ha":1335,"x_min":109,"x_max":1280,"o":"m 1280 0 l 109 0 l 109 973 l 1227 973 l 1227 732 l 517 732 l 517 580 l 1117 580 l 1117 393 l 517 393 l 517 241 l 1280 241 l 1280 0 m 780 1061 l 609 1061 l 698 1302 l 982 1302 l 780 1061 z "},"Ê":{"ha":1335,"x_min":109,"x_max":1280,"o":"m 1280 0 l 109 0 l 109 973 l 1227 973 l 1227 732 l 517 732 l 517 580 l 1117 580 l 1117 393 l 517 393 l 517 241 l 1280 241 l 1280 0 m 984 1061 l 787 1061 l 694 1163 l 602 1061 l 405 1061 l 610 1302 l 779 1302 l 984 1061 z "},"Ë":{"ha":1335,"x_min":109,"x_max":1280,"o":"m 1280 0 l 109 0 l 109 973 l 1227 973 l 1227 732 l 517 732 l 517 580 l 1117 580 l 1117 393 l 517 393 l 517 241 l 1280 241 l 1280 0 m 552 1061 l 360 1061 l 360 1253 l 552 1253 l 552 1061 m 1029 1061 l 838 1061 l 838 1253 l 1029 1253 l 1029 1061 z "},"Ì":{"ha":625,"x_min":25,"x_max":517,"o":"m 517 0 l 109 0 l 109 973 l 517 973 l 517 0 m 398 1061 l 227 1061 l 25 1302 l 310 1302 l 398 1061 z "},"Í":{"ha":625,"x_min":109,"x_max":600,"o":"m 517 0 l 109 0 l 109 973 l 517 973 l 517 0 m 398 1061 l 227 1061 l 316 1302 l 600 1302 l 398 1061 z "},"Î":{"ha":625,"x_min":23,"x_max":602,"o":"m 517 0 l 109 0 l 109 973 l 517 973 l 517 0 m 602 1061 l 406 1061 l 313 1163 l 220 1061 l 23 1061 l 229 1302 l 397 1302 l 602 1061 z "},"Ï":{"ha":626,"x_min":-22,"x_max":648,"o":"m 517 0 l 109 0 l 109 973 l 517 973 l 517 0 m 170 1061 l -22 1061 l -22 1253 l 170 1253 l 170 1061 m 648 1061 l 456 1061 l 456 1253 l 648 1253 l 648 1061 z "},"Ð":{"ha":1571,"x_min":20,"x_max":1516,"o":"m 772 0 l 121 0 l 121 431 l 20 431 l 20 581 l 121 581 l 121 973 l 772 973 q 1127 943 989 973 q 1346 861 1266 912 q 1462 747 1426 810 q 1508 616 1499 684 q 1516 486 1516 549 q 1508 357 1516 425 q 1462 226 1499 290 q 1346 112 1426 163 q 1127 31 1266 61 q 772 0 989 0 m 734 241 q 1085 398 1044 241 q 1097 486 1097 442 q 1085 575 1097 531 q 1037 654 1074 618 q 928 711 1001 690 q 734 732 856 732 l 529 732 l 529 581 l 726 581 l 726 431 l 529 431 l 529 241 l 734 241 z "},"Ñ":{"ha":1661,"x_min":109,"x_max":1552,"o":"m 1552 0 l 1067 0 l 517 659 l 517 0 l 109 0 l 109 973 l 594 973 l 1144 318 l 1144 973 l 1552 973 l 1552 0 m 1008 1061 q 872 1093 960 1061 q 764 1118 806 1118 q 722 1061 724 1118 l 589 1061 q 679 1240 589 1217 q 726 1246 701 1246 q 858 1221 772 1246 q 950 1203 923 1203 q 979 1209 964 1203 q 994 1244 994 1215 l 1127 1244 q 1043 1065 1127 1084 q 1008 1061 1026 1061 z "},"Ò":{"ha":1472,"x_min":54,"x_max":1417,"o":"m 736 -21 q 205 127 375 -21 q 54 486 54 259 q 205 844 54 713 q 736 993 375 993 q 1267 844 1097 993 q 1417 486 1417 713 q 1267 127 1417 259 q 736 -21 1097 -21 m 736 240 q 953 325 884 240 q 1008 486 1008 393 q 953 647 1008 578 q 736 732 884 732 q 518 647 588 732 q 463 486 463 578 q 518 325 463 393 q 736 240 588 240 m 821 1060 l 650 1060 l 448 1301 l 732 1301 l 821 1060 z "},"Ó":{"ha":1472,"x_min":54,"x_max":1417,"o":"m 736 -21 q 205 127 375 -21 q 54 486 54 258 q 205 844 54 713 q 736 993 375 993 q 1267 844 1097 993 q 1417 486 1417 713 q 1267 127 1417 258 q 736 -21 1097 -21 m 736 239 q 953 325 884 239 q 1008 486 1008 393 q 953 647 1008 578 q 736 732 884 732 q 518 647 588 732 q 463 486 463 578 q 518 325 463 393 q 736 239 588 239 m 821 1060 l 650 1060 l 739 1301 l 1023 1301 l 821 1060 z "},"Ô":{"ha":1472,"x_min":54,"x_max":1417,"o":"m 736 -21 q 205 127 375 -21 q 54 486 54 259 q 205 844 54 713 q 736 993 375 993 q 1267 844 1097 993 q 1417 486 1417 713 q 1267 127 1417 259 q 736 -21 1097 -21 m 736 240 q 953 325 884 240 q 1008 486 1008 393 q 953 647 1008 579 q 736 732 884 732 q 518 647 588 732 q 463 486 463 579 q 518 325 463 393 q 736 240 588 240 m 1025 1061 l 828 1061 l 736 1162 l 643 1061 l 446 1061 l 651 1302 l 820 1302 l 1025 1061 z "},"Õ":{"ha":1472,"x_min":54,"x_max":1417,"o":"m 736 -21 q 205 127 375 -21 q 54 486 54 259 q 205 844 54 713 q 736 993 375 993 q 1267 844 1097 993 q 1417 486 1417 713 q 1267 127 1417 259 q 736 -21 1097 -21 m 736 240 q 953 325 884 240 q 1008 486 1008 393 q 953 647 1008 579 q 736 732 884 732 q 518 647 588 732 q 463 486 463 579 q 518 325 463 393 q 736 240 588 240 m 886 1060 q 750 1093 838 1060 q 642 1118 684 1118 q 600 1060 602 1118 l 467 1060 q 557 1240 467 1217 q 604 1246 579 1246 q 736 1221 650 1246 q 828 1202 801 1202 q 857 1208 842 1202 q 871 1244 871 1214 l 1005 1244 q 921 1064 1005 1084 q 886 1060 904 1060 z "},"Ö":{"ha":1472,"x_min":54,"x_max":1417,"o":"m 736 -21 q 205 127 375 -21 q 54 486 54 259 q 205 844 54 713 q 736 993 375 993 q 1267 844 1097 993 q 1417 486 1417 713 q 1267 127 1417 259 q 736 -21 1097 -21 m 736 240 q 953 325 884 240 q 1008 486 1008 393 q 953 647 1008 579 q 736 732 884 732 q 518 647 588 732 q 463 486 463 579 q 518 325 463 393 q 736 240 588 240 m 593 1061 l 401 1061 l 401 1253 l 593 1253 l 593 1061 m 1070 1061 l 878 1061 l 878 1253 l 1070 1253 l 1070 1061 z "},"×":{"ha":688,"x_min":0,"x_max":0,"o":""},"Ø":{"ha":1472,"x_min":54,"x_max":1417,"o":"m 307 -56 l 194 56 l 239 100 q 54 485 54 233 q 205 844 54 712 q 736 992 375 992 q 1082 944 945 992 l 1165 1027 l 1278 914 l 1233 869 q 1417 485 1417 736 q 1267 127 1417 258 q 736 -22 1097 -22 q 389 26 526 -22 l 307 -56 m 495 357 l 852 713 q 736 731 804 731 q 518 646 588 731 q 463 485 463 578 q 495 357 463 416 m 736 239 q 953 324 884 239 q 1008 485 1008 392 q 976 613 1008 555 l 619 256 q 736 239 667 239 z "},"Ù":{"ha":1369,"x_min":61,"x_max":1308,"o":"m 684 -21 q 183 127 328 -21 q 61 486 61 252 l 61 972 l 469 972 l 469 486 q 504 325 469 385 q 684 240 553 240 q 865 325 817 240 q 900 486 900 386 l 900 972 l 1308 972 l 1308 481 q 1187 127 1308 252 q 684 -21 1041 -21 m 770 1060 l 599 1060 l 397 1301 l 682 1301 l 770 1060 z "},"Ú":{"ha":1369,"x_min":61,"x_max":1308,"o":"m 684 -21 q 183 127 328 -21 q 61 486 61 251 l 61 972 l 469 972 l 469 486 q 504 325 469 385 q 684 240 553 240 q 865 325 817 240 q 900 486 900 386 l 900 972 l 1308 972 l 1308 480 q 1187 127 1308 251 q 684 -21 1041 -21 m 770 1060 l 599 1060 l 688 1301 l 972 1301 l 770 1060 z "},"Û":{"ha":1369,"x_min":61,"x_max":1308,"o":"m 684 -21 q 183 127 328 -21 q 61 486 61 251 l 61 972 l 469 972 l 469 486 q 504 325 469 384 q 684 240 553 240 q 865 325 817 240 q 900 486 900 386 l 900 972 l 1308 972 l 1308 480 q 1187 127 1308 251 q 684 -21 1041 -21 m 975 1060 l 777 1060 l 684 1162 l 592 1060 l 395 1060 l 600 1301 l 769 1301 l 975 1060 z "},"Ü":{"ha":1369,"x_min":61,"x_max":1308,"o":"m 684 -21 q 183 127 328 -21 q 61 486 61 252 l 61 972 l 469 972 l 469 486 q 504 325 469 385 q 684 240 553 240 q 865 325 817 240 q 900 486 900 386 l 900 972 l 1308 972 l 1308 481 q 1187 127 1308 252 q 684 -21 1041 -21 m 542 1060 l 350 1060 l 350 1253 l 542 1253 l 542 1060 m 1019 1060 l 827 1060 l 827 1253 l 1019 1253 l 1019 1060 z "},"Ý":{"ha":1490,"x_min":10,"x_max":1480,"o":"m 949 0 l 541 0 l 541 461 l 10 973 l 463 973 l 745 682 l 1027 973 l 1480 973 l 949 461 l 949 0 m 831 1061 l 660 1061 l 748 1302 l 1033 1302 l 831 1061 z "},"Þ":{"ha":1478,"x_min":109,"x_max":1437,"o":"m 517 0 l 109 0 l 109 973 l 517 973 l 517 833 l 772 833 q 1157 797 1010 833 q 1370 685 1303 762 q 1437 486 1437 609 q 1370 288 1437 364 q 1157 176 1303 212 q 772 140 1010 140 l 517 140 l 517 0 m 517 380 l 750 381 q 904 389 848 381 q 987 411 960 397 q 1021 445 1014 425 q 1029 486 1029 464 q 1021 529 1029 509 q 987 562 1014 548 q 904 584 960 576 q 750 592 848 592 l 517 592 l 517 380 z "},"ß":{"ha":1474,"x_min":109,"x_max":1453,"o":"m 1069 -20 q 927 -12 1036 -20 q 627 111 818 -3 l 817 243 q 961 182 903 182 q 992 183 962 182 q 1035 212 1022 184 q 1038 224 1038 218 q 996 260 1038 245 q 791 373 850 321 q 732 493 732 426 q 733 528 732 494 q 770 665 734 562 q 775 699 775 684 q 758 743 775 723 q 685 768 737 768 q 613 752 652 768 q 544 700 574 737 q 513 607 513 663 l 513 0 l 109 0 l 109 607 q 164 794 109 717 q 311 920 220 872 q 639 994 456 994 q 758 986 682 994 q 921 939 833 979 q 1059 834 1008 900 q 1104 694 1104 774 l 1103 676 q 1072 567 1093 602 q 1051 492 1051 526 q 1102 441 1051 465 q 1211 396 1149 418 q 1343 337 1300 366 q 1453 189 1453 263 q 1441 126 1453 176 q 1305 23 1429 77 q 1069 -20 1205 -20 z "},"à":{"ha":1645,"x_min":10,"x_max":1634,"o":"m 1634 0 l 1221 0 l 1129 159 l 515 159 l 424 0 l 10 0 l 633 972 l 1012 972 l 1634 0 m 991 400 l 823 695 l 653 400 l 991 400 m 908 1061 l 737 1061 l 534 1302 l 819 1302 l 908 1061 z "},"á":{"ha":1645,"x_min":10,"x_max":1634,"o":"m 1634 0 l 1221 0 l 1129 159 l 515 159 l 424 0 l 10 0 l 633 972 l 1012 972 l 1634 0 m 991 400 l 823 695 l 653 400 l 991 400 m 908 1061 l 737 1061 l 825 1302 l 1110 1302 l 908 1061 z "},"â":{"ha":1645,"x_min":10,"x_max":1634,"o":"m 1634 0 l 1221 0 l 1129 159 l 515 159 l 424 0 l 10 0 l 633 972 l 1012 972 l 1634 0 m 991 400 l 823 695 l 653 400 l 991 400 m 1112 1061 l 915 1061 l 823 1163 l 730 1061 l 532 1061 l 738 1302 l 907 1302 l 1112 1061 z "},"ã":{"ha":1645,"x_min":10,"x_max":1634,"o":"m 1634 0 l 1221 0 l 1129 159 l 515 159 l 424 0 l 10 0 l 633 972 l 1012 972 l 1634 0 m 991 400 l 823 695 l 653 400 l 991 400 m 972 1061 q 837 1093 926 1061 q 729 1118 770 1118 q 686 1061 688 1118 l 553 1061 q 644 1240 553 1217 q 690 1246 666 1246 q 823 1221 737 1246 q 915 1203 888 1203 q 944 1209 929 1203 q 958 1244 958 1215 l 1092 1244 q 1007 1065 1092 1084 q 972 1061 990 1061 z "},"ä":{"ha":1645,"x_min":10,"x_max":1634,"o":"m 1634 0 l 1221 0 l 1129 159 l 515 159 l 424 0 l 10 0 l 633 972 l 1012 972 l 1634 0 m 991 400 l 823 695 l 653 400 l 991 400 m 680 1061 l 488 1061 l 488 1253 l 680 1253 l 680 1061 m 1157 1061 l 965 1061 l 965 1253 l 1157 1253 l 1157 1061 z "},"å":{"ha":1645,"x_min":10,"x_max":1634,"o":"m 1634 0 l 1221 0 l 1129 159 l 515 159 l 424 0 l 10 0 l 633 972 l 1012 972 l 1634 0 m 991 400 l 823 695 l 653 400 l 991 400 m 823 994 q 713 1039 758 994 q 668 1147 668 1084 q 713 1257 668 1212 q 823 1302 758 1302 q 931 1257 886 1302 q 977 1147 977 1212 q 931 1039 977 1084 q 823 994 886 994 m 823 1071 q 877 1093 854 1071 q 899 1147 899 1116 q 877 1202 899 1179 q 823 1225 854 1225 q 768 1202 791 1225 q 745 1147 745 1179 q 768 1093 745 1116 q 823 1071 791 1071 z "},"æ":{"ha":2082,"x_min":10,"x_max":2028,"o":"m 2028 0 l 894 0 l 894 159 l 515 159 l 424 0 l 10 0 l 633 973 l 1973 973 l 1973 732 l 1302 732 l 1302 580 l 1864 580 l 1864 393 l 1302 393 l 1302 241 l 2028 241 l 2028 0 m 894 400 l 894 732 l 844 732 l 653 400 l 894 400 z "},"ç":{"ha":1457,"x_min":54,"x_max":1402,"o":"m 686 -244 l 673 -244 q 612 -241 640 -244 l 586 -239 l 586 -175 l 605 -178 q 667 -182 636 -182 q 711 -179 687 -182 q 753 -165 734 -176 q 772 -131 772 -154 q 758 -97 772 -107 q 716 -87 744 -87 q 684 -90 701 -87 q 653 -98 667 -94 l 640 -102 l 659 -28 l 668 -26 q 693 -23 677 -24 l 693 -19 q 196 137 353 -9 q 54 488 54 268 q 205 846 54 714 q 736 994 374 994 q 1086 946 947 994 q 1301 813 1224 897 q 1402 620 1377 729 l 973 620 q 736 734 909 734 q 518 648 588 734 q 463 488 463 581 q 518 327 463 395 q 736 241 587 241 q 973 355 909 241 l 1402 355 q 1213 90 1367 193 q 754 -19 1059 -13 l 754 -22 q 809 -34 783 -24 q 853 -68 836 -45 q 870 -131 870 -91 q 841 -200 870 -176 q 770 -234 812 -224 q 686 -244 728 -243 z "},"è":{"ha":1335,"x_min":109,"x_max":1280,"o":"m 1280 0 l 109 0 l 109 973 l 1227 973 l 1227 732 l 517 732 l 517 580 l 1117 580 l 1117 393 l 517 393 l 517 241 l 1280 241 l 1280 0 m 780 1061 l 609 1061 l 407 1302 l 692 1302 l 780 1061 z "},"é":{"ha":1335,"x_min":109,"x_max":1280,"o":"m 1280 0 l 109 0 l 109 973 l 1227 973 l 1227 732 l 517 732 l 517 580 l 1117 580 l 1117 393 l 517 393 l 517 241 l 1280 241 l 1280 0 m 780 1061 l 609 1061 l 698 1302 l 982 1302 l 780 1061 z "},"ê":{"ha":1335,"x_min":109,"x_max":1280,"o":"m 1280 0 l 109 0 l 109 973 l 1227 973 l 1227 732 l 517 732 l 517 580 l 1117 580 l 1117 393 l 517 393 l 517 241 l 1280 241 l 1280 0 m 984 1061 l 787 1061 l 694 1163 l 602 1061 l 405 1061 l 610 1302 l 779 1302 l 984 1061 z "},"ë":{"ha":1335,"x_min":109,"x_max":1280,"o":"m 1280 0 l 109 0 l 109 973 l 1227 973 l 1227 732 l 517 732 l 517 580 l 1117 580 l 1117 393 l 517 393 l 517 241 l 1280 241 l 1280 0 m 552 1061 l 360 1061 l 360 1253 l 552 1253 l 552 1061 m 1029 1061 l 838 1061 l 838 1253 l 1029 1253 l 1029 1061 z "},"ì":{"ha":625,"x_min":25,"x_max":517,"o":"m 517 0 l 109 0 l 109 973 l 517 973 l 517 0 m 398 1061 l 227 1061 l 25 1302 l 310 1302 l 398 1061 z "},"í":{"ha":625,"x_min":109,"x_max":600,"o":"m 517 0 l 109 0 l 109 973 l 517 973 l 517 0 m 398 1061 l 227 1061 l 316 1302 l 600 1302 l 398 1061 z "},"î":{"ha":625,"x_min":23,"x_max":602,"o":"m 517 0 l 109 0 l 109 973 l 517 973 l 517 0 m 602 1061 l 406 1061 l 313 1163 l 220 1061 l 23 1061 l 229 1302 l 397 1302 l 602 1061 z "},"ï":{"ha":626,"x_min":-22,"x_max":648,"o":"m 517 0 l 109 0 l 109 973 l 517 973 l 517 0 m 170 1061 l -22 1061 l -22 1253 l 170 1253 l 170 1061 m 648 1061 l 456 1061 l 456 1253 l 648 1253 l 648 1061 z "},"ð":{"ha":1571,"x_min":20,"x_max":1516,"o":"m 772 0 l 121 0 l 121 431 l 20 431 l 20 581 l 121 581 l 121 973 l 772 973 q 1127 943 989 973 q 1346 861 1266 912 q 1462 747 1426 810 q 1508 616 1499 684 q 1516 486 1516 549 q 1508 357 1516 425 q 1462 226 1499 290 q 1346 112 1426 163 q 1127 31 1266 61 q 772 0 989 0 m 734 241 q 1085 398 1044 241 q 1097 486 1097 442 q 1085 575 1097 531 q 1037 654 1074 618 q 928 711 1001 690 q 734 732 856 732 l 529 732 l 529 581 l 726 581 l 726 431 l 529 431 l 529 241 l 734 241 z "},"ñ":{"ha":1661,"x_min":109,"x_max":1552,"o":"m 1552 0 l 1067 0 l 517 659 l 517 0 l 109 0 l 109 973 l 594 973 l 1144 318 l 1144 973 l 1552 973 l 1552 0 m 1008 1061 q 872 1093 960 1061 q 764 1118 806 1118 q 722 1061 724 1118 l 589 1061 q 679 1240 589 1217 q 726 1246 701 1246 q 858 1221 772 1246 q 950 1203 923 1203 q 979 1209 964 1203 q 994 1244 994 1215 l 1127 1244 q 1043 1065 1127 1084 q 1008 1061 1026 1061 z "},"ò":{"ha":1472,"x_min":54,"x_max":1417,"o":"m 736 -21 q 205 127 375 -21 q 54 486 54 259 q 205 844 54 713 q 736 993 375 993 q 1267 844 1097 993 q 1417 486 1417 713 q 1267 127 1417 259 q 736 -21 1097 -21 m 736 240 q 953 325 884 240 q 1008 486 1008 393 q 953 647 1008 578 q 736 732 884 732 q 518 647 588 732 q 463 486 463 578 q 518 325 463 393 q 736 240 588 240 m 821 1060 l 650 1060 l 448 1301 l 732 1301 l 821 1060 z "},"ó":{"ha":1472,"x_min":54,"x_max":1417,"o":"m 736 -21 q 205 127 375 -21 q 54 486 54 258 q 205 844 54 713 q 736 993 375 993 q 1267 844 1097 993 q 1417 486 1417 713 q 1267 127 1417 258 q 736 -21 1097 -21 m 736 239 q 953 325 884 239 q 1008 486 1008 393 q 953 647 1008 578 q 736 732 884 732 q 518 647 588 732 q 463 486 463 578 q 518 325 463 393 q 736 239 588 239 m 821 1060 l 650 1060 l 739 1301 l 1023 1301 l 821 1060 z "},"ô":{"ha":1472,"x_min":54,"x_max":1417,"o":"m 736 -21 q 205 127 375 -21 q 54 486 54 259 q 205 844 54 713 q 736 993 375 993 q 1267 844 1097 993 q 1417 486 1417 713 q 1267 127 1417 259 q 736 -21 1097 -21 m 736 240 q 953 325 884 240 q 1008 486 1008 393 q 953 647 1008 579 q 736 732 884 732 q 518 647 588 732 q 463 486 463 579 q 518 325 463 393 q 736 240 588 240 m 1025 1061 l 828 1061 l 736 1162 l 643 1061 l 446 1061 l 651 1302 l 820 1302 l 1025 1061 z "},"õ":{"ha":1472,"x_min":54,"x_max":1417,"o":"m 736 -21 q 205 127 375 -21 q 54 486 54 259 q 205 844 54 713 q 736 993 375 993 q 1267 844 1097 993 q 1417 486 1417 713 q 1267 127 1417 259 q 736 -21 1097 -21 m 736 240 q 953 325 884 240 q 1008 486 1008 393 q 953 647 1008 579 q 736 732 884 732 q 518 647 588 732 q 463 486 463 579 q 518 325 463 393 q 736 240 588 240 m 886 1060 q 750 1093 838 1060 q 642 1118 684 1118 q 600 1060 602 1118 l 467 1060 q 557 1240 467 1217 q 604 1246 579 1246 q 736 1221 650 1246 q 828 1202 801 1202 q 857 1208 842 1202 q 871 1244 871 1214 l 1005 1244 q 921 1064 1005 1084 q 886 1060 904 1060 z "},"ö":{"ha":1472,"x_min":54,"x_max":1417,"o":"m 736 -21 q 205 127 375 -21 q 54 486 54 259 q 205 844 54 713 q 736 993 375 993 q 1267 844 1097 993 q 1417 486 1417 713 q 1267 127 1417 259 q 736 -21 1097 -21 m 736 240 q 953 325 884 240 q 1008 486 1008 393 q 953 647 1008 579 q 736 732 884 732 q 518 647 588 732 q 463 486 463 579 q 518 325 463 393 q 736 240 588 240 m 593 1061 l 401 1061 l 401 1253 l 593 1253 l 593 1061 m 1070 1061 l 878 1061 l 878 1253 l 1070 1253 l 1070 1061 z "},"÷":{"ha":688,"x_min":0,"x_max":0,"o":""},"ø":{"ha":1472,"x_min":54,"x_max":1417,"o":"m 307 -56 l 194 56 l 239 100 q 54 485 54 233 q 205 844 54 712 q 736 992 375 992 q 1082 944 945 992 l 1165 1027 l 1278 914 l 1233 869 q 1417 485 1417 736 q 1267 127 1417 258 q 736 -22 1097 -22 q 389 26 526 -22 l 307 -56 m 495 357 l 852 713 q 736 731 804 731 q 518 646 588 731 q 463 485 463 578 q 495 357 463 416 m 736 239 q 953 324 884 239 q 1008 485 1008 392 q 976 613 1008 555 l 619 256 q 736 239 667 239 z "},"ù":{"ha":1369,"x_min":61,"x_max":1308,"o":"m 684 -21 q 183 127 328 -21 q 61 486 61 252 l 61 972 l 469 972 l 469 486 q 504 325 469 385 q 684 240 553 240 q 865 325 817 240 q 900 486 900 386 l 900 972 l 1308 972 l 1308 481 q 1187 127 1308 252 q 684 -21 1041 -21 m 770 1060 l 599 1060 l 397 1301 l 682 1301 l 770 1060 z "},"ú":{"ha":1369,"x_min":61,"x_max":1308,"o":"m 684 -21 q 183 127 328 -21 q 61 486 61 251 l 61 972 l 469 972 l 469 486 q 504 325 469 385 q 684 240 553 240 q 865 325 817 240 q 900 486 900 386 l 900 972 l 1308 972 l 1308 480 q 1187 127 1308 251 q 684 -21 1041 -21 m 770 1060 l 599 1060 l 688 1301 l 972 1301 l 770 1060 z "},"û":{"ha":1369,"x_min":61,"x_max":1308,"o":"m 684 -21 q 183 127 328 -21 q 61 486 61 251 l 61 972 l 469 972 l 469 486 q 504 325 469 384 q 684 240 553 240 q 865 325 817 240 q 900 486 900 386 l 900 972 l 1308 972 l 1308 480 q 1187 127 1308 251 q 684 -21 1041 -21 m 975 1060 l 777 1060 l 684 1162 l 592 1060 l 395 1060 l 600 1301 l 769 1301 l 975 1060 z "},"ü":{"ha":1369,"x_min":61,"x_max":1308,"o":"m 684 -21 q 183 127 328 -21 q 61 486 61 252 l 61 972 l 469 972 l 469 486 q 504 325 469 385 q 684 240 553 240 q 865 325 817 240 q 900 486 900 386 l 900 972 l 1308 972 l 1308 481 q 1187 127 1308 252 q 684 -21 1041 -21 m 542 1060 l 350 1060 l 350 1253 l 542 1253 l 542 1060 m 1019 1060 l 827 1060 l 827 1253 l 1019 1253 l 1019 1060 z "},"ý":{"ha":1490,"x_min":10,"x_max":1480,"o":"m 949 0 l 541 0 l 541 461 l 10 973 l 463 973 l 745 682 l 1027 973 l 1480 973 l 949 461 l 949 0 m 831 1061 l 660 1061 l 748 1302 l 1033 1302 l 831 1061 z "},"þ":{"ha":1478,"x_min":109,"x_max":1437,"o":"m 517 0 l 109 0 l 109 973 l 517 973 l 517 833 l 772 833 q 1157 797 1010 833 q 1370 685 1303 762 q 1437 486 1437 609 q 1370 288 1437 364 q 1157 176 1303 212 q 772 140 1010 140 l 517 140 l 517 0 m 517 380 l 750 381 q 904 389 848 381 q 987 411 960 397 q 1021 445 1014 425 q 1029 486 1029 464 q 1021 529 1029 509 q 987 562 1014 548 q 904 584 960 576 q 750 592 848 592 l 517 592 l 517 380 z "},"ÿ":{"ha":1490,"x_min":10,"x_max":1480,"o":"m 949 0 l 541 0 l 541 461 l 10 973 l 463 973 l 745 682 l 1027 973 l 1480 973 l 949 461 l 949 0 m 602 1061 l 410 1061 l 410 1253 l 602 1253 l 602 1061 m 1080 1061 l 888 1061 l 888 1253 l 1080 1253 l 1080 1061 z "},"ı":{"ha":625,"x_min":109,"x_max":517,"o":"m 517 0 l 109 0 l 109 973 l 517 973 l 517 0 z "},"ˆ":{"ha":694,"x_min":0,"x_max":0,"o":""},"ˇ":{"ha":694,"x_min":0,"x_max":0,"o":""},"ˉ":{"ha":694,"x_min":0,"x_max":0,"o":""},"˘":{"ha":694,"x_min":0,"x_max":0,"o":""},"˙":{"ha":694,"x_min":0,"x_max":0,"o":""},"˚":{"ha":694,"x_min":0,"x_max":0,"o":""},"˛":{"ha":694,"x_min":0,"x_max":0,"o":""},"˜":{"ha":694,"x_min":0,"x_max":0,"o":""},"˝":{"ha":694,"x_min":0,"x_max":0,"o":""},"–":{"ha":909,"x_min":41,"x_max":868,"o":"m 41 401 l 41 564 l 868 564 l 868 401 l 41 401 z "},"—":{"ha":1112,"x_min":41,"x_max":1072,"o":"m 41 401 l 41 564 l 1072 564 l 1072 401 l 41 401 z "},"‘":{"ha":269,"x_min":41,"x_max":228,"o":"m 228 1149 l 228 1055 q 155 1033 175 1055 q 134 972 134 1010 l 228 972 l 228 785 l 41 785 l 41 972 q 68 1081 41 1043 q 138 1135 95 1120 q 228 1149 181 1149 z "},"’":{"ha":269,"x_min":41,"x_max":228,"o":"m 41 608 l 41 703 q 114 725 94 703 q 134 785 134 748 l 41 785 l 41 972 l 228 972 l 228 785 q 201 676 228 715 q 131 623 174 638 q 41 608 88 608 z "},"‚":{"ha":269,"x_min":41,"x_max":228,"o":"m 41 -364 l 41 -271 q 114 -248 94 -271 q 134 -187 134 -224 l 41 -187 l 41 0 l 228 0 l 228 -187 q 201 -296 228 -258 q 131 -349 174 -334 q 41 -364 88 -364 z "},"“":{"ha":508,"x_min":41,"x_max":467,"o":"m 467 1149 l 467 1055 q 394 1033 414 1055 q 374 972 374 1010 l 467 972 l 467 785 l 279 785 l 279 972 q 307 1081 279 1043 q 377 1135 334 1120 q 467 1149 420 1149 m 228 1149 l 228 1055 q 155 1033 175 1055 q 134 972 134 1010 l 228 972 l 228 785 l 41 785 l 41 972 q 68 1081 41 1043 q 138 1135 95 1120 q 228 1149 181 1149 z "},"”":{"ha":508,"x_min":41,"x_max":467,"o":"m 41 608 l 41 703 q 114 725 94 703 q 134 785 134 748 l 41 785 l 41 972 l 228 972 l 228 785 q 201 676 228 715 q 131 623 174 638 q 41 608 88 608 m 279 608 l 279 703 q 353 725 333 703 q 374 785 374 748 l 279 785 l 279 972 l 467 972 l 467 785 q 440 676 467 715 q 370 623 413 638 q 279 608 327 608 z "},"„":{"ha":508,"x_min":41,"x_max":467,"o":"m 41 -364 l 41 -271 q 114 -248 94 -271 q 134 -187 134 -224 l 41 -187 l 41 0 l 228 0 l 228 -187 q 201 -296 228 -258 q 131 -349 174 -334 q 41 -364 88 -364 m 279 -364 l 279 -271 q 353 -248 333 -271 q 374 -187 374 -224 l 279 -187 l 279 0 l 467 0 l 467 -187 q 440 -296 467 -258 q 370 -349 413 -334 q 279 -364 327 -364 z "},"†":{"ha":688,"x_min":0,"x_max":0,"o":""},"‡":{"ha":688,"x_min":0,"x_max":0,"o":""},"•":{"ha":694,"x_min":0,"x_max":0,"o":""},"…":{"ha":1033,"x_min":0,"x_max":0,"o":""},"‹":{"ha":350,"x_min":41,"x_max":309,"o":"m 309 290 l 204 290 l 41 487 l 204 684 l 309 684 l 176 487 l 309 290 z "},"›":{"ha":350,"x_min":41,"x_max":309,"o":"m 41 290 l 174 487 l 41 684 l 146 684 l 309 487 l 146 290 l 41 290 z "},"⁄":{"ha":781,"x_min":41,"x_max":740,"o":"m 288 -1 l 41 -1 l 492 972 l 740 972 l 288 -1 z "},"₣":{"ha":688,"x_min":0,"x_max":0,"o":""},"₤":{"ha":688,"x_min":0,"x_max":0,"o":""},"₧":{"ha":1375,"x_min":0,"x_max":0,"o":""},"€":{"ha":688,"x_min":0,"x_max":0,"o":""},"№":{"ha":2288,"x_min":109,"x_max":2234,"o":"m 1551 0 l 1066 0 l 517 659 l 517 0 l 109 0 l 109 972 l 593 972 l 1143 318 l 1143 972 l 1551 972 l 1551 0 m 1929 359 q 1750 394 1816 359 q 1654 489 1683 429 q 1626 620 1626 548 q 1654 751 1626 692 q 1750 846 1683 810 q 1929 881 1816 881 q 2109 846 2043 881 q 2204 751 2176 810 q 2233 620 2233 692 q 2204 489 2233 548 q 2109 394 2176 429 q 1929 359 2043 359 m 1929 493 q 2023 620 2023 493 q 2018 673 2023 643 q 1992 725 2012 703 q 1929 747 1972 747 q 1836 620 1836 747 q 1841 567 1836 597 q 1866 515 1847 537 q 1929 493 1886 493 m 2234 92 l 1626 92 l 1626 285 l 2234 285 l 2234 92 z "},"™":{"ha":983,"x_min":41,"x_max":942,"o":"m 267 694 l 150 694 l 150 904 l 41 904 l 41 973 l 376 973 l 376 904 l 267 904 l 267 694 m 942 694 l 825 694 l 825 872 l 721 694 l 633 694 l 529 872 l 529 694 l 412 694 l 412 973 l 551 973 l 677 774 l 803 973 l 942 973 l 942 694 z "},"∂":{"ha":688,"x_min":0,"x_max":0,"o":""},"∆":{"ha":733,"x_min":0,"x_max":0,"o":""},"∏":{"ha":1027,"x_min":0,"x_max":0,"o":""},"∑":{"ha":818,"x_min":0,"x_max":0,"o":""},"−":{"ha":688,"x_min":0,"x_max":0,"o":""},"√":{"ha":688,"x_min":0,"x_max":0,"o":""},"∞":{"ha":688,"x_min":0,"x_max":0,"o":""},"∫":{"ha":451,"x_min":0,"x_max":0,"o":""},"≈":{"ha":688,"x_min":0,"x_max":0,"o":""},"≤":{"ha":688,"x_min":0,"x_max":0,"o":""},"≥":{"ha":688,"x_min":0,"x_max":0,"o":""},"":{"ha":728,"x_min":0,"x_max":0,"o":""},"":{"ha":733,"x_min":0,"x_max":0,"o":""},"Ā":{"ha":1645,"x_min":10,"x_max":1634,"o":"m 1634 0 l 1221 0 l 1129 159 l 515 159 l 424 0 l 10 0 l 633 972 l 1012 972 l 1634 0 m 991 400 l 823 695 l 653 400 l 991 400 m 1112 1061 l 532 1061 l 532 1228 l 1112 1228 l 1112 1061 z "},"Ă":{"ha":1645,"x_min":10,"x_max":1634,"o":"m 1634 0 l 1221 0 l 1129 159 l 515 159 l 424 0 l 10 0 l 633 972 l 1012 972 l 1634 0 m 991 400 l 823 695 l 653 400 l 991 400 m 823 1061 q 686 1093 742 1061 q 602 1181 631 1126 q 573 1302 573 1236 l 709 1302 q 739 1215 709 1250 q 823 1181 769 1181 q 906 1215 876 1181 q 937 1302 937 1250 l 1072 1302 q 1043 1181 1072 1236 q 958 1093 1014 1126 q 823 1061 903 1061 z "},"Ą":{"ha":1645,"x_min":10,"x_max":1634,"o":"m 1423 -283 q 1346 -264 1377 -283 q 1280 -146 1280 -223 q 1281 -104 1280 -144 q 1343 -1 1281 -64 l 1221 -1 l 1129 159 l 515 159 l 424 -1 l 10 -1 l 633 972 l 1012 972 l 1634 -1 l 1451 -1 q 1428 -78 1428 -46 q 1442 -120 1428 -103 q 1516 -149 1466 -149 q 1555 -145 1534 -149 l 1555 -256 q 1423 -283 1478 -283 m 991 399 l 823 694 l 653 399 l 991 399 z "},"Ć":{"ha":1457,"x_min":54,"x_max":1402,"o":"m 736 -21 q 205 127 375 -21 q 54 486 54 259 q 205 844 54 713 q 736 993 375 993 q 1086 944 947 993 q 1301 812 1224 896 q 1402 618 1377 728 l 973 618 q 736 732 909 732 q 518 647 588 732 q 463 486 463 579 q 518 325 463 393 q 736 240 588 240 q 973 353 909 240 l 1402 353 q 1301 161 1377 245 q 1086 28 1224 77 q 736 -21 947 -21 m 814 1060 l 643 1060 l 731 1301 l 1016 1301 l 814 1060 z "},"Ĉ":{"ha":1457,"x_min":54,"x_max":1402,"o":"m 736 -21 q 205 127 375 -21 q 54 486 54 258 q 205 844 54 713 q 736 993 375 993 q 1086 944 947 993 q 1301 811 1224 895 q 1402 618 1377 727 l 973 618 q 736 732 909 732 q 518 647 588 732 q 463 486 463 578 q 518 325 463 393 q 736 239 588 239 q 973 353 909 239 l 1402 353 q 1301 160 1377 244 q 1086 27 1224 76 q 736 -21 947 -21 m 1018 1060 l 821 1060 l 728 1162 l 635 1060 l 439 1060 l 644 1301 l 812 1301 l 1018 1060 z "},"Ċ":{"ha":1457,"x_min":54,"x_max":1402,"o":"m 736 -21 q 205 127 375 -21 q 54 486 54 259 q 205 844 54 713 q 736 993 375 993 q 1086 944 947 993 q 1301 811 1224 895 q 1402 618 1377 727 l 973 618 q 736 732 909 732 q 518 647 588 732 q 463 486 463 579 q 518 325 463 393 q 736 240 588 240 q 973 353 909 240 l 1402 353 q 1301 161 1377 245 q 1086 28 1224 77 q 736 -21 947 -21 m 832 1060 l 624 1060 l 624 1268 l 832 1268 l 832 1060 z "},"Č":{"ha":1457,"x_min":54,"x_max":1402,"o":"m 736 -21 q 205 127 375 -21 q 54 486 54 259 q 205 844 54 713 q 736 993 375 993 q 1086 944 947 993 q 1301 811 1224 895 q 1402 618 1377 727 l 973 618 q 736 732 909 732 q 518 647 588 732 q 463 486 463 579 q 518 325 463 393 q 736 240 588 240 q 973 353 909 240 l 1402 353 q 1301 161 1377 245 q 1086 28 1224 77 q 736 -21 947 -21 m 812 1060 l 644 1060 l 439 1301 l 635 1301 l 728 1199 l 821 1301 l 1018 1301 l 812 1060 z "},"Ď":{"ha":1558,"x_min":109,"x_max":1503,"o":"m 760 0 l 109 0 l 109 973 l 760 973 q 1115 943 977 973 q 1334 861 1254 912 q 1450 747 1413 810 q 1495 616 1487 684 q 1503 486 1503 549 q 1495 357 1503 425 q 1450 226 1487 290 q 1334 112 1413 163 q 1115 31 1254 61 q 760 0 977 0 m 721 241 q 1073 398 1032 241 q 1084 486 1084 442 q 1073 575 1084 531 q 1025 654 1061 618 q 916 711 989 690 q 721 732 844 732 l 517 732 l 517 241 l 721 241 m 783 1061 l 614 1061 l 409 1302 l 606 1302 l 699 1200 l 791 1302 l 989 1302 l 783 1061 z "},"Đ":{"ha":1571,"x_min":20,"x_max":1516,"o":"m 772 0 l 121 0 l 121 431 l 20 431 l 20 581 l 121 581 l 121 973 l 772 973 q 1127 943 989 973 q 1346 861 1266 912 q 1462 747 1426 810 q 1508 616 1499 684 q 1516 486 1516 549 q 1508 357 1516 425 q 1462 226 1499 290 q 1346 112 1426 163 q 1127 31 1266 61 q 772 0 989 0 m 734 241 q 1085 398 1044 241 q 1097 486 1097 442 q 1085 575 1097 531 q 1037 654 1074 618 q 928 711 1001 690 q 734 732 856 732 l 529 732 l 529 581 l 726 581 l 726 431 l 529 431 l 529 241 l 734 241 z "},"Ē":{"ha":1335,"x_min":109,"x_max":1280,"o":"m 1280 0 l 109 0 l 109 973 l 1227 973 l 1227 732 l 517 732 l 517 580 l 1117 580 l 1117 393 l 517 393 l 517 241 l 1280 241 l 1280 0 m 985 1061 l 404 1061 l 404 1228 l 985 1228 l 985 1061 z "},"Ĕ":{"ha":1335,"x_min":109,"x_max":1280,"o":"m 1280 0 l 109 0 l 109 973 l 1227 973 l 1227 732 l 517 732 l 517 580 l 1117 580 l 1117 393 l 517 393 l 517 241 l 1280 241 l 1280 0 m 694 1061 q 558 1093 614 1061 q 474 1181 503 1126 q 446 1302 446 1236 l 581 1302 q 611 1216 581 1251 q 694 1181 641 1181 q 778 1216 748 1181 q 808 1302 808 1251 l 944 1302 q 915 1181 944 1236 q 831 1093 886 1126 q 694 1061 775 1061 z "},"Ė":{"ha":1335,"x_min":109,"x_max":1280,"o":"m 1280 0 l 109 0 l 109 973 l 1227 973 l 1227 732 l 517 732 l 517 580 l 1117 580 l 1117 393 l 517 393 l 517 241 l 1280 241 l 1280 0 m 799 1061 l 591 1061 l 591 1269 l 799 1269 l 799 1061 z "},"Ę":{"ha":1335,"x_min":109,"x_max":1280,"o":"m 1078 -282 q 1001 -263 1031 -282 q 935 -144 935 -222 q 936 -103 935 -143 q 999 0 937 -63 l 109 0 l 109 973 l 1227 973 l 1227 732 l 517 732 l 517 580 l 1117 580 l 1117 393 l 517 393 l 517 241 l 1280 241 l 1280 0 l 1106 0 q 1084 -77 1084 -45 q 1098 -119 1084 -102 q 1171 -149 1122 -149 q 1210 -144 1189 -149 l 1210 -256 q 1078 -282 1133 -282 z "},"Ě":{"ha":1335,"x_min":109,"x_max":1280,"o":"m 1280 0 l 109 0 l 109 973 l 1227 973 l 1227 732 l 517 732 l 517 580 l 1117 580 l 1117 393 l 517 393 l 517 241 l 1280 241 l 1280 0 m 779 1061 l 610 1061 l 405 1302 l 602 1302 l 694 1200 l 787 1302 l 984 1302 l 779 1061 z "},"Ĝ":{"ha":1452,"x_min":54,"x_max":1398,"o":"m 736 -21 q 205 127 375 -21 q 54 486 54 259 q 205 844 54 713 q 736 993 375 993 q 1078 947 941 993 q 1292 821 1214 901 q 1398 637 1369 741 l 961 637 q 736 732 892 732 q 518 647 588 732 q 463 486 463 579 q 518 325 463 393 q 736 240 588 240 q 915 261 855 240 q 1003 315 975 281 l 844 315 l 844 486 l 1398 486 l 1398 -1 l 1228 -1 l 1194 94 q 736 -21 1031 -21 m 1015 1060 l 819 1060 l 726 1162 l 633 1060 l 436 1060 l 642 1301 l 810 1301 l 1015 1060 z "},"Ğ":{"ha":1452,"x_min":54,"x_max":1398,"o":"m 736 -21 q 205 127 375 -21 q 54 486 54 258 q 205 844 54 713 q 736 992 375 992 q 1078 946 941 992 q 1292 821 1214 901 q 1398 637 1369 741 l 961 637 q 736 732 892 732 q 518 646 588 732 q 463 486 463 578 q 518 325 463 393 q 736 239 588 239 q 915 260 855 239 q 1003 315 975 281 l 844 315 l 844 486 l 1398 486 l 1398 -1 l 1228 -1 l 1194 94 q 736 -21 1031 -21 m 726 1060 q 590 1093 645 1060 q 506 1180 534 1125 q 477 1301 477 1234 l 612 1301 q 642 1214 612 1249 q 726 1179 673 1179 q 809 1214 779 1179 q 840 1301 840 1249 l 975 1301 q 946 1180 975 1234 q 862 1093 918 1125 q 726 1060 806 1060 z "},"Ġ":{"ha":1452,"x_min":54,"x_max":1398,"o":"m 736 -21 q 205 127 375 -21 q 54 486 54 258 q 205 844 54 713 q 736 993 375 993 q 1078 947 941 993 q 1292 821 1214 901 q 1398 637 1369 741 l 961 637 q 736 732 892 732 q 518 647 588 732 q 463 486 463 578 q 518 325 463 393 q 736 239 588 239 q 915 260 855 239 q 1003 315 975 281 l 844 315 l 844 486 l 1398 486 l 1398 -1 l 1228 -1 l 1194 94 q 736 -21 1031 -21 m 830 1060 l 622 1060 l 622 1268 l 830 1268 l 830 1060 z "},"Ģ":{"ha":1452,"x_min":54,"x_max":1398,"o":"m 736 -20 q 205 129 375 -20 q 54 487 54 260 q 205 846 54 714 q 736 994 375 994 q 1078 948 941 994 q 1292 822 1214 902 q 1398 639 1369 743 l 961 639 q 736 733 892 733 q 518 648 588 733 q 463 487 463 580 q 518 326 463 394 q 736 241 588 241 q 915 262 855 241 q 1003 316 975 283 l 844 316 l 844 487 l 1398 487 l 1398 1 l 1228 1 l 1194 95 q 736 -20 1031 -20 m 632 -463 l 632 -370 q 706 -347 686 -370 q 726 -287 726 -324 l 632 -287 l 632 -100 l 819 -100 l 819 -287 q 792 -396 819 -357 q 722 -449 765 -434 q 632 -463 680 -463 z "},"Ĥ":{"ha":1546,"x_min":109,"x_max":1438,"o":"m 1438 0 l 1029 0 l 1029 393 l 517 393 l 517 0 l 109 0 l 109 973 l 517 973 l 517 580 l 1029 580 l 1029 973 l 1438 973 l 1438 0 m 1063 1061 l 866 1061 l 773 1163 l 681 1061 l 484 1061 l 689 1302 l 858 1302 l 1063 1061 z "},"Ħ":{"ha":1656,"x_min":81,"x_max":1575,"o":"m 1493 0 l 1084 0 l 1084 393 l 572 393 l 572 0 l 163 0 l 163 681 l 81 681 l 81 868 l 163 868 l 163 973 l 572 973 l 572 868 l 1084 868 l 1084 973 l 1493 973 l 1493 868 l 1575 868 l 1575 681 l 1493 681 l 1493 0 m 1084 580 l 1084 681 l 572 681 l 572 580 l 1084 580 z "},"Ĩ":{"ha":625,"x_min":43,"x_max":582,"o":"m 517 0 l 109 0 l 109 973 l 517 973 l 517 0 m 463 1061 q 327 1093 416 1061 q 219 1118 261 1118 q 176 1061 178 1118 l 43 1061 q 134 1240 43 1218 q 181 1246 157 1246 q 313 1221 227 1246 q 405 1203 377 1203 q 434 1209 420 1203 q 449 1244 449 1215 l 582 1244 q 498 1065 582 1084 q 463 1061 481 1061 z "},"Ī":{"ha":625,"x_min":22,"x_max":603,"o":"m 517 0 l 109 0 l 109 973 l 517 973 l 517 0 m 603 1061 l 22 1061 l 22 1228 l 603 1228 l 603 1061 z "},"Ĭ":{"ha":625,"x_min":63,"x_max":562,"o":"m 516 0 l 108 0 l 108 973 l 516 973 l 516 0 m 312 1061 q 176 1093 232 1061 q 92 1181 121 1126 q 63 1302 63 1236 l 198 1302 q 229 1216 198 1251 q 312 1181 259 1181 q 396 1216 366 1181 q 426 1302 426 1251 l 562 1302 q 533 1181 562 1236 q 448 1093 504 1126 q 312 1061 393 1061 z "},"Į":{"ha":625,"x_min":109,"x_max":517,"o":"m 294 -283 q 216 -264 247 -283 q 151 -146 151 -223 q 151 -104 151 -144 q 214 -1 151 -64 l 109 -1 l 109 972 l 517 972 l 517 -1 l 321 -1 q 298 -78 298 -45 q 313 -120 298 -103 q 386 -149 336 -149 q 425 -145 404 -149 l 425 -256 q 294 -283 349 -283 z "},"İ":{"ha":625,"x_min":109,"x_max":517,"o":"m 517 0 l 109 0 l 109 973 l 517 973 l 517 0 m 417 1061 l 209 1061 l 209 1269 l 417 1269 l 417 1061 z "},"Ĳ":{"ha":1872,"x_min":109,"x_max":1811,"o":"m 517 -1 l 109 -1 l 109 972 l 517 972 l 517 -1 m 1188 -21 q 591 289 680 -21 q 565 486 565 381 l 973 486 q 1008 325 973 385 q 1188 240 1056 240 q 1369 325 1320 240 q 1403 486 1403 385 l 1403 972 l 1811 972 l 1811 475 q 1691 127 1811 251 q 1188 -21 1545 -21 z "},"Ĵ":{"ha":1349,"x_min":41,"x_max":1373,"o":"m 664 -21 q 163 127 308 -21 q 41 486 41 252 l 449 486 q 484 325 449 385 q 664 240 533 240 q 845 325 796 240 q 880 486 880 386 l 880 972 l 1288 972 l 1288 480 q 1166 127 1288 252 q 664 -21 1021 -21 m 1373 1060 l 1176 1060 l 1084 1162 l 991 1060 l 793 1060 l 999 1301 l 1168 1301 l 1373 1060 z "},"Ķ":{"ha":1716,"x_min":109,"x_max":1706,"o":"m 1706 0 l 1176 0 l 758 326 l 517 161 l 517 0 l 109 0 l 109 972 l 517 972 l 517 522 l 1172 972 l 1706 972 l 1009 497 l 1706 0 m 745 -465 l 745 -371 q 818 -348 798 -371 q 838 -288 838 -325 l 745 -288 l 745 -100 l 932 -100 l 932 -288 q 905 -396 932 -358 q 834 -450 878 -435 q 745 -465 791 -465 z "},"Ĺ":{"ha":1272,"x_min":109,"x_max":1244,"o":"m 1244 0 l 109 0 l 109 973 l 517 973 l 517 241 l 1244 241 l 1244 0 m 517 1061 l 346 1061 l 435 1302 l 719 1302 l 517 1061 z "},"Ļ":{"ha":1272,"x_min":109,"x_max":1244,"o":"m 1244 -1 l 109 -1 l 109 972 l 517 972 l 517 240 l 1244 240 l 1244 -1 m 583 -465 l 583 -371 q 656 -348 636 -371 q 677 -288 677 -326 l 583 -288 l 583 -100 l 770 -100 l 770 -288 q 743 -397 770 -359 q 673 -450 716 -435 q 583 -465 630 -465 z "},"Ľ":{"ha":1272,"x_min":109,"x_max":1244,"o":"m 1244 0 l 109 0 l 109 973 l 517 973 l 517 241 l 1244 241 l 1244 0 m 842 609 l 842 703 q 916 725 896 703 q 936 785 936 748 l 842 785 l 842 973 l 1029 973 l 1029 785 q 1002 676 1029 715 q 932 624 975 638 q 842 609 890 609 z "},"Ŀ":{"ha":1272,"x_min":109,"x_max":1244,"o":"m 1244 0 l 109 0 l 109 973 l 517 973 l 517 241 l 1244 241 l 1244 0 m 954 551 l 746 551 l 746 760 l 954 760 l 954 551 z "},"Ł":{"ha":1363,"x_min":81,"x_max":1336,"o":"m 1336 0 l 200 0 l 200 257 l 81 196 l 81 408 l 200 469 l 200 973 l 608 973 l 608 680 l 987 874 l 987 662 l 608 467 l 608 241 l 1336 241 l 1336 0 z "},"Ń":{"ha":1661,"x_min":109,"x_max":1552,"o":"m 1552 0 l 1067 0 l 517 659 l 517 0 l 109 0 l 109 973 l 594 973 l 1144 318 l 1144 973 l 1552 973 l 1552 0 m 857 1061 l 685 1061 l 774 1302 l 1059 1302 l 857 1061 z "},"Ņ":{"ha":1661,"x_min":109,"x_max":1552,"o":"m 1552 -1 l 1067 -1 l 517 659 l 517 -1 l 109 -1 l 109 972 l 594 972 l 1144 317 l 1144 972 l 1552 972 l 1552 -1 m 736 -465 l 736 -371 q 810 -348 790 -371 q 830 -288 830 -326 l 736 -288 l 736 -100 l 924 -100 l 924 -288 q 897 -397 924 -359 q 827 -450 869 -435 q 736 -465 784 -465 z "},"Ň":{"ha":1661,"x_min":109,"x_max":1552,"o":"m 1552 0 l 1067 0 l 517 659 l 517 0 l 109 0 l 109 973 l 594 973 l 1144 318 l 1144 973 l 1552 973 l 1552 0 m 915 1061 l 746 1061 l 541 1302 l 738 1302 l 830 1200 l 923 1302 l 1120 1302 l 915 1061 z "},"Ŋ":{"ha":1661,"x_min":109,"x_max":1552,"o":"m 942 -467 l 942 -205 q 1079 -187 1036 -205 q 1133 -124 1121 -169 q 1144 0 1144 -80 l 517 659 l 517 0 l 109 0 l 109 972 l 594 972 l 1144 377 l 1144 972 l 1552 972 l 1552 -7 q 1524 -240 1552 -149 q 1426 -381 1495 -332 q 1239 -449 1357 -431 q 942 -467 1120 -467 z "},"Ō":{"ha":1472,"x_min":54,"x_max":1417,"o":"m 736 -21 q 205 127 375 -21 q 54 486 54 259 q 205 844 54 713 q 736 993 375 993 q 1267 844 1097 993 q 1417 486 1417 713 q 1267 127 1417 259 q 736 -21 1097 -21 m 736 240 q 953 325 884 240 q 1008 486 1008 393 q 953 647 1008 578 q 736 732 884 732 q 518 647 588 732 q 463 486 463 578 q 518 325 463 393 q 736 240 588 240 m 1026 1060 l 446 1060 l 446 1227 l 1026 1227 l 1026 1060 z "},"Ŏ":{"ha":1472,"x_min":54,"x_max":1417,"o":"m 736 -21 q 205 127 375 -21 q 54 486 54 258 q 205 844 54 713 q 736 993 375 993 q 1267 844 1097 993 q 1417 486 1417 713 q 1267 127 1417 258 q 736 -21 1097 -21 m 736 239 q 953 325 884 239 q 1008 486 1008 393 q 953 647 1008 578 q 736 732 884 732 q 518 647 588 732 q 463 486 463 578 q 518 325 463 393 q 736 239 588 239 m 736 1060 q 600 1093 655 1060 q 515 1180 544 1125 q 486 1301 486 1235 l 622 1301 q 652 1214 622 1249 q 736 1179 682 1179 q 820 1214 789 1179 q 850 1301 850 1249 l 985 1301 q 956 1180 985 1235 q 872 1093 927 1125 q 736 1060 817 1060 z "},"Ő":{"ha":1472,"x_min":54,"x_max":1417,"o":"m 736 -21 q 205 127 375 -21 q 54 486 54 259 q 205 844 54 713 q 736 993 375 993 q 1267 844 1097 993 q 1417 486 1417 713 q 1267 127 1417 259 q 736 -21 1097 -21 m 736 240 q 953 325 884 240 q 1008 486 1008 393 q 953 647 1008 579 q 736 732 884 732 q 518 647 588 732 q 463 486 463 579 q 518 325 463 393 q 736 240 588 240 m 639 1060 l 468 1060 l 557 1301 l 842 1301 l 639 1060 m 956 1060 l 785 1060 l 873 1301 l 1158 1301 l 956 1060 z "},"Œ":{"ha":2302,"x_min":54,"x_max":2247,"o":"m 736 -21 q 205 127 375 -21 q 54 486 54 258 q 205 844 54 713 q 736 992 375 992 q 1114 933 970 992 l 1114 972 l 2193 972 l 2193 732 l 1522 732 l 1522 579 l 2083 579 l 2083 392 l 1522 392 l 1522 239 l 2247 239 l 2247 -1 l 1114 -1 l 1114 38 q 736 -21 970 -21 m 736 239 q 953 325 884 239 q 1008 486 1008 393 q 953 646 1008 578 q 736 732 884 732 q 518 646 588 732 q 463 486 463 578 q 518 325 463 393 q 736 239 588 239 z "},"Ŕ":{"ha":1491,"x_min":109,"x_max":1437,"o":"m 1437 0 l 1051 0 q 1014 94 1025 37 q 985 180 1004 138 q 920 251 966 222 q 782 281 873 279 l 517 281 l 517 0 l 109 0 l 109 973 l 772 973 q 1157 938 1010 973 q 1370 826 1303 902 q 1437 627 1437 749 q 1391 454 1437 524 q 1244 344 1344 385 q 1370 248 1341 304 q 1405 125 1398 192 q 1437 0 1412 65 m 517 521 l 750 522 q 904 530 848 522 q 987 554 960 539 q 1021 588 1014 570 q 1029 627 1029 607 q 1021 665 1029 646 q 987 700 1014 684 q 904 724 960 715 q 750 732 848 732 l 517 732 l 517 521 m 791 1061 l 620 1061 l 709 1302 l 994 1302 l 791 1061 z "},"Ŗ":{"ha":1491,"x_min":109,"x_max":1437,"o":"m 1437 -1 l 1051 -1 q 1014 93 1025 36 q 985 180 1004 137 q 920 251 966 222 q 782 280 873 279 l 517 280 l 517 -1 l 109 -1 l 109 972 l 772 972 q 1157 937 1010 972 q 1370 825 1303 901 q 1437 627 1437 749 q 1391 454 1437 524 q 1244 344 1344 385 q 1370 247 1341 303 q 1405 125 1398 191 q 1437 -1 1412 64 m 750 522 q 904 530 848 522 q 987 554 960 539 q 1021 588 1014 569 q 1029 627 1029 607 q 1021 665 1029 646 q 987 699 1014 684 q 904 723 960 714 q 750 732 848 732 l 517 732 l 517 521 l 750 522 m 679 -465 l 679 -371 q 752 -348 732 -371 q 772 -288 772 -325 l 679 -288 l 679 -100 l 866 -100 l 866 -288 q 839 -396 866 -358 q 769 -450 812 -435 q 679 -465 726 -465 z "},"Ř":{"ha":1491,"x_min":109,"x_max":1437,"o":"m 1437 0 l 1051 0 q 1014 94 1025 37 q 985 180 1004 138 q 920 251 966 222 q 782 281 873 279 l 517 281 l 517 0 l 109 0 l 109 973 l 772 973 q 1157 938 1010 973 q 1370 826 1303 902 q 1437 627 1437 749 q 1391 454 1437 524 q 1244 344 1344 385 q 1370 248 1341 304 q 1405 125 1398 192 q 1437 0 1412 65 m 517 521 l 750 522 q 904 530 848 522 q 987 554 960 539 q 1021 588 1014 570 q 1029 627 1029 607 q 1021 665 1029 646 q 987 700 1014 684 q 904 724 960 715 q 750 732 848 732 l 517 732 l 517 521 m 857 1061 l 688 1061 l 483 1302 l 680 1302 l 772 1200 l 865 1302 l 1062 1302 l 857 1061 z "},"Ś":{"ha":1287,"x_min":54,"x_max":1233,"o":"m 643 -21 q 325 21 446 -21 q 141 138 204 64 q 56 309 78 212 l 490 309 q 643 240 538 240 q 796 309 748 240 q 800 321 800 316 q 752 349 800 340 q 607 363 703 358 q 352 389 486 368 q 54 627 54 435 q 56 663 54 644 q 141 834 78 760 q 325 950 204 908 q 643 993 446 993 q 961 950 840 993 q 1145 834 1082 908 q 1230 663 1208 760 l 796 663 q 643 732 748 732 q 490 663 538 732 q 486 652 486 657 q 533 628 486 636 q 670 615 579 621 q 863 597 760 610 q 1054 555 965 585 q 1194 466 1143 525 q 1233 351 1233 420 q 1230 309 1233 331 q 1145 138 1208 212 q 961 21 1082 64 q 643 -21 840 -21 m 729 1060 l 558 1060 l 646 1301 l 931 1301 l 729 1060 z "},"Ŝ":{"ha":1287,"x_min":54,"x_max":1233,"o":"m 643 -21 q 325 21 446 -21 q 141 138 204 64 q 56 309 78 212 l 490 309 q 643 240 538 240 q 796 309 748 240 q 800 321 800 316 q 752 349 800 340 q 607 363 703 358 q 352 389 486 368 q 54 628 54 435 q 56 663 54 645 q 141 834 78 760 q 325 950 204 908 q 643 993 446 993 q 961 950 840 993 q 1145 834 1082 908 q 1230 663 1208 760 l 796 663 q 643 732 748 732 q 490 663 538 732 q 486 653 486 657 q 533 628 486 636 q 670 615 579 621 q 863 597 760 610 q 1054 555 965 585 q 1194 466 1143 525 q 1233 351 1233 420 q 1230 309 1233 331 q 1145 138 1208 212 q 961 21 1082 64 q 643 -21 840 -21 m 933 1060 l 736 1060 l 644 1162 l 551 1060 l 353 1060 l 559 1301 l 728 1301 l 933 1060 z "},"Ş":{"ha":1287,"x_min":54,"x_max":1233,"o":"m 606 -244 l 593 -244 q 532 -241 559 -244 l 506 -239 l 506 -175 l 525 -178 q 587 -182 556 -182 q 631 -179 607 -182 q 673 -165 654 -176 q 692 -131 692 -154 q 678 -97 692 -107 q 636 -87 664 -87 q 604 -90 621 -87 q 573 -98 587 -94 l 559 -102 l 578 -28 l 588 -26 q 613 -23 597 -24 l 613 -19 q 212 78 338 -12 q 56 311 85 168 l 490 311 q 643 241 538 241 q 796 311 747 241 q 800 324 800 318 q 752 351 800 342 q 607 364 703 359 q 352 390 486 370 q 130 473 218 411 q 54 629 54 527 q 56 664 54 646 q 141 835 78 761 q 325 952 204 909 q 643 994 446 994 q 961 952 840 994 q 1145 835 1082 909 q 1230 664 1208 761 l 796 664 q 643 734 747 734 q 490 664 538 734 q 486 654 486 659 q 533 630 486 638 q 670 617 579 622 q 863 600 760 612 q 1054 557 965 587 q 1194 468 1143 526 q 1233 353 1233 422 q 1230 311 1233 333 q 1074 78 1200 168 q 673 -19 948 -12 l 673 -22 q 729 -34 703 -24 q 773 -68 755 -45 q 790 -131 790 -91 q 761 -200 790 -176 q 690 -234 732 -224 q 606 -244 648 -243 z "},"Š":{"ha":1287,"x_min":54,"x_max":1233,"o":"m 643 -21 q 325 21 446 -21 q 141 138 204 64 q 56 309 78 212 l 490 309 q 643 240 538 240 q 796 309 748 240 q 800 321 800 316 q 752 349 800 340 q 607 363 703 358 q 352 389 486 368 q 54 627 54 435 q 56 663 54 644 q 141 834 78 760 q 325 950 204 908 q 643 993 446 993 q 961 950 840 993 q 1145 834 1082 908 q 1230 663 1208 760 l 796 663 q 643 732 748 732 q 490 663 538 732 q 486 652 486 657 q 533 628 486 636 q 670 615 579 621 q 863 597 760 610 q 1054 555 965 585 q 1194 466 1143 525 q 1233 351 1233 420 q 1230 309 1233 331 q 1145 138 1208 212 q 961 21 1082 64 q 643 -21 840 -21 m 728 1060 l 559 1060 l 353 1301 l 551 1301 l 644 1199 l 736 1301 l 933 1301 l 728 1060 z "},"Ţ":{"ha":1252,"x_min":41,"x_max":1211,"o":"m 589 -245 l 575 -246 q 515 -243 542 -246 l 489 -240 l 489 -176 l 508 -179 q 570 -184 539 -184 q 613 -181 590 -184 q 656 -166 637 -178 q 675 -132 675 -155 q 661 -99 675 -109 q 619 -89 647 -89 q 587 -92 604 -89 q 556 -100 570 -95 l 543 -104 l 562 -29 l 571 -28 q 595 -24 580 -26 l 595 0 l 422 0 l 422 732 l 41 732 l 41 972 l 1211 972 l 1211 732 l 830 732 l 830 0 l 656 0 l 656 -23 q 711 -36 685 -25 q 755 -69 738 -46 q 773 -132 773 -92 q 744 -201 773 -177 q 673 -235 715 -225 q 589 -245 631 -245 z "},"Ť":{"ha":1252,"x_min":41,"x_max":1211,"o":"m 830 0 l 422 0 l 422 732 l 41 732 l 41 973 l 1211 973 l 1211 732 l 830 732 l 830 0 m 711 1061 l 542 1061 l 336 1302 l 534 1302 l 626 1200 l 719 1302 l 916 1302 l 711 1061 z "},"Ŧ":{"ha":1252,"x_min":41,"x_max":1211,"o":"m 830 0 l 422 0 l 422 307 l 203 307 l 203 486 l 422 486 l 422 732 l 41 732 l 41 973 l 1211 973 l 1211 732 l 830 732 l 830 486 l 1049 486 l 1049 307 l 830 307 l 830 0 z "},"Ũ":{"ha":1369,"x_min":61,"x_max":1308,"o":"m 684 -21 q 183 127 328 -21 q 61 486 61 252 l 61 972 l 469 972 l 469 486 q 504 325 469 385 q 684 240 553 240 q 865 325 817 240 q 900 486 900 386 l 900 972 l 1308 972 l 1308 480 q 1187 127 1308 252 q 684 -21 1041 -21 m 833 1060 q 699 1092 788 1060 q 591 1118 631 1118 q 549 1060 550 1118 l 415 1060 q 506 1239 415 1217 q 555 1245 529 1245 q 685 1221 601 1245 q 777 1202 750 1202 q 806 1208 791 1202 q 821 1243 821 1214 l 954 1243 q 869 1064 954 1082 q 833 1060 852 1060 z "},"Ū":{"ha":1369,"x_min":61,"x_max":1308,"o":"m 684 -21 q 183 127 328 -21 q 61 486 61 252 l 61 972 l 469 972 l 469 486 q 504 325 469 385 q 684 240 553 240 q 865 325 817 240 q 900 486 900 386 l 900 972 l 1308 972 l 1308 481 q 1187 127 1308 252 q 684 -21 1042 -21 m 975 1060 l 395 1060 l 395 1228 l 975 1228 l 975 1060 z "},"Ŭ":{"ha":1369,"x_min":61,"x_max":1308,"o":"m 684 -21 q 183 127 328 -21 q 61 486 61 252 l 61 972 l 469 972 l 469 486 q 504 325 469 385 q 684 240 553 240 q 865 325 817 240 q 900 486 900 386 l 900 972 l 1308 972 l 1308 480 q 1187 127 1308 252 q 684 -21 1041 -21 m 684 1060 q 548 1093 604 1060 q 464 1180 493 1125 q 435 1301 435 1235 l 570 1301 q 601 1214 570 1249 q 684 1179 631 1179 q 768 1214 738 1179 q 798 1301 798 1249 l 934 1301 q 905 1180 934 1235 q 821 1093 876 1125 q 684 1060 765 1060 z "},"Ů":{"ha":1369,"x_min":61,"x_max":1308,"o":"m 684 -21 q 183 127 328 -21 q 61 486 61 252 l 61 972 l 469 972 l 469 486 q 504 325 469 385 q 684 240 553 240 q 865 325 817 240 q 900 486 900 386 l 900 972 l 1308 972 l 1308 480 q 1187 127 1308 252 q 684 -21 1041 -21 m 684 1060 q 575 1105 621 1060 q 530 1215 530 1150 q 575 1323 530 1278 q 684 1369 621 1369 q 794 1323 749 1369 q 839 1215 839 1278 q 794 1105 839 1150 q 684 1060 749 1060 m 684 1137 q 739 1160 716 1137 q 762 1215 762 1183 q 739 1269 762 1246 q 684 1291 716 1291 q 630 1269 652 1291 q 608 1215 608 1246 q 630 1160 608 1183 q 684 1137 652 1137 z "},"Ű":{"ha":1369,"x_min":61,"x_max":1308,"o":"m 684 -21 q 183 127 328 -21 q 61 486 61 252 l 61 972 l 469 972 l 469 486 q 504 325 469 385 q 684 240 553 240 q 865 325 817 240 q 900 486 900 386 l 900 972 l 1308 972 l 1308 481 q 1187 127 1308 252 q 684 -21 1041 -21 m 604 1060 l 433 1060 l 521 1301 l 806 1301 l 604 1060 m 920 1060 l 749 1060 l 838 1301 l 1122 1301 l 920 1060 z "},"Ų":{"ha":1369,"x_min":61,"x_max":1308,"o":"m 871 -283 q 781 -257 829 -283 q 726 -145 726 -229 q 774 -18 726 -78 q 684 -21 731 -21 q 183 127 329 -21 q 61 486 61 251 l 61 972 l 469 972 l 469 486 q 504 325 469 384 q 684 240 553 240 q 865 325 817 240 q 900 486 900 386 l 900 972 l 1308 972 l 1308 477 q 1274 264 1308 363 q 1149 95 1239 165 q 896 -5 1059 24 q 875 -78 875 -47 q 890 -121 875 -104 q 962 -149 913 -149 q 1002 -145 980 -149 l 1002 -256 q 871 -283 926 -283 z "},"Ŵ":{"ha":2117,"x_min":10,"x_max":2107,"o":"m 1639 0 l 1299 0 l 1059 632 l 819 0 l 478 0 l 10 972 l 424 972 l 668 355 l 930 972 l 1187 972 l 1449 355 l 1693 972 l 2107 972 l 1639 0 m 1348 1061 l 1152 1061 l 1059 1163 l 966 1061 l 769 1061 l 974 1302 l 1143 1302 l 1348 1061 z "},"Ŷ":{"ha":1490,"x_min":10,"x_max":1480,"o":"m 949 0 l 541 0 l 541 461 l 10 973 l 463 973 l 745 682 l 1027 973 l 1480 973 l 949 461 l 949 0 m 1035 1061 l 838 1061 l 745 1163 l 652 1061 l 455 1061 l 661 1302 l 829 1302 l 1035 1061 z "},"Ÿ":{"ha":1490,"x_min":10,"x_max":1480,"o":"m 949 0 l 541 0 l 541 461 l 10 973 l 463 973 l 745 682 l 1027 973 l 1480 973 l 949 461 l 949 0 m 602 1061 l 410 1061 l 410 1253 l 602 1253 l 602 1061 m 1080 1061 l 888 1061 l 888 1253 l 1080 1253 l 1080 1061 z "},"Ź":{"ha":1246,"x_min":61,"x_max":1185,"o":"m 1185 0 l 61 0 l 61 240 l 705 732 l 61 732 l 61 972 l 1185 972 l 1185 732 l 541 240 l 1185 240 l 1185 0 m 709 1061 l 538 1061 l 626 1302 l 911 1302 l 709 1061 z "},"Ż":{"ha":1246,"x_min":61,"x_max":1185,"o":"m 1185 0 l 61 0 l 61 240 l 705 732 l 61 732 l 61 972 l 1185 972 l 1185 732 l 541 240 l 1185 240 l 1185 0 m 727 1061 l 519 1061 l 519 1269 l 727 1269 l 727 1061 z "},"Ž":{"ha":1246,"x_min":61,"x_max":1185,"o":"m 1185 0 l 61 0 l 61 240 l 705 732 l 61 732 l 61 972 l 1185 972 l 1185 732 l 541 240 l 1185 240 l 1185 0 m 707 1061 l 539 1061 l 334 1302 l 530 1302 l 623 1200 l 716 1302 l 913 1302 l 707 1061 z "},"ā":{"ha":1645,"x_min":10,"x_max":1634,"o":"m 1634 0 l 1221 0 l 1129 159 l 515 159 l 424 0 l 10 0 l 633 972 l 1012 972 l 1634 0 m 991 400 l 823 695 l 653 400 l 991 400 m 1112 1061 l 532 1061 l 532 1228 l 1112 1228 l 1112 1061 z "},"ă":{"ha":1645,"x_min":10,"x_max":1634,"o":"m 1634 0 l 1221 0 l 1129 159 l 515 159 l 424 0 l 10 0 l 633 972 l 1012 972 l 1634 0 m 991 400 l 823 695 l 653 400 l 991 400 m 823 1061 q 686 1093 742 1061 q 602 1181 631 1126 q 573 1302 573 1236 l 709 1302 q 739 1215 709 1250 q 823 1181 769 1181 q 906 1215 876 1181 q 937 1302 937 1250 l 1072 1302 q 1043 1181 1072 1236 q 958 1093 1014 1126 q 823 1061 903 1061 z "},"ą":{"ha":1645,"x_min":10,"x_max":1634,"o":"m 1423 -283 q 1346 -264 1377 -283 q 1280 -146 1280 -223 q 1281 -104 1280 -144 q 1343 -1 1281 -64 l 1221 -1 l 1129 159 l 515 159 l 424 -1 l 10 -1 l 633 972 l 1012 972 l 1634 -1 l 1451 -1 q 1428 -78 1428 -46 q 1442 -120 1428 -103 q 1516 -149 1466 -149 q 1555 -145 1534 -149 l 1555 -256 q 1423 -283 1478 -283 m 991 399 l 823 694 l 653 399 l 991 399 z "},"ć":{"ha":1457,"x_min":54,"x_max":1402,"o":"m 736 -21 q 205 127 375 -21 q 54 486 54 259 q 205 844 54 713 q 736 993 375 993 q 1086 944 947 993 q 1301 812 1224 896 q 1402 618 1377 728 l 973 618 q 736 732 909 732 q 518 647 588 732 q 463 486 463 579 q 518 325 463 393 q 736 240 588 240 q 973 353 909 240 l 1402 353 q 1301 161 1377 245 q 1086 28 1224 77 q 736 -21 947 -21 m 814 1060 l 643 1060 l 731 1301 l 1016 1301 l 814 1060 z "},"ĉ":{"ha":1457,"x_min":54,"x_max":1402,"o":"m 736 -21 q 205 127 375 -21 q 54 486 54 258 q 205 844 54 713 q 736 993 375 993 q 1086 944 947 993 q 1301 811 1224 895 q 1402 618 1377 727 l 973 618 q 736 732 909 732 q 518 647 588 732 q 463 486 463 578 q 518 325 463 393 q 736 239 588 239 q 973 353 909 239 l 1402 353 q 1301 160 1377 244 q 1086 27 1224 76 q 736 -21 947 -21 m 1018 1060 l 821 1060 l 728 1162 l 635 1060 l 439 1060 l 644 1301 l 812 1301 l 1018 1060 z "},"ċ":{"ha":1457,"x_min":54,"x_max":1402,"o":"m 736 -21 q 205 127 375 -21 q 54 486 54 259 q 205 844 54 713 q 736 993 375 993 q 1086 944 947 993 q 1301 811 1224 895 q 1402 618 1377 727 l 973 618 q 736 732 909 732 q 518 647 588 732 q 463 486 463 579 q 518 325 463 393 q 736 240 588 240 q 973 353 909 240 l 1402 353 q 1301 161 1377 245 q 1086 28 1224 77 q 736 -21 947 -21 m 832 1060 l 624 1060 l 624 1268 l 832 1268 l 832 1060 z "},"č":{"ha":1457,"x_min":54,"x_max":1402,"o":"m 736 -21 q 205 127 375 -21 q 54 486 54 259 q 205 844 54 713 q 736 993 375 993 q 1086 944 947 993 q 1301 811 1224 895 q 1402 618 1377 727 l 973 618 q 736 732 909 732 q 518 647 588 732 q 463 486 463 579 q 518 325 463 393 q 736 240 588 240 q 973 353 909 240 l 1402 353 q 1301 161 1377 245 q 1086 28 1224 77 q 736 -21 947 -21 m 812 1060 l 644 1060 l 439 1301 l 635 1301 l 728 1199 l 821 1301 l 1018 1301 l 812 1060 z "},"ď":{"ha":1558,"x_min":109,"x_max":1503,"o":"m 760 0 l 109 0 l 109 973 l 760 973 q 1115 943 977 973 q 1334 861 1254 912 q 1450 747 1413 810 q 1495 616 1487 684 q 1503 486 1503 549 q 1495 357 1503 425 q 1450 226 1487 290 q 1334 112 1413 163 q 1115 31 1254 61 q 760 0 977 0 m 721 241 q 1073 398 1032 241 q 1084 486 1084 442 q 1073 575 1084 531 q 1025 654 1061 618 q 916 711 989 690 q 721 732 844 732 l 517 732 l 517 241 l 721 241 m 783 1061 l 614 1061 l 409 1302 l 606 1302 l 699 1200 l 791 1302 l 989 1302 l 783 1061 z "},"đ":{"ha":1571,"x_min":20,"x_max":1516,"o":"m 772 0 l 121 0 l 121 431 l 20 431 l 20 581 l 121 581 l 121 973 l 772 973 q 1127 943 989 973 q 1346 861 1266 912 q 1462 747 1426 810 q 1508 616 1499 684 q 1516 486 1516 549 q 1508 357 1516 425 q 1462 226 1499 290 q 1346 112 1426 163 q 1127 31 1266 61 q 772 0 989 0 m 734 241 q 1085 398 1044 241 q 1097 486 1097 442 q 1085 575 1097 531 q 1037 654 1074 618 q 928 711 1001 690 q 734 732 856 732 l 529 732 l 529 581 l 726 581 l 726 431 l 529 431 l 529 241 l 734 241 z "},"ē":{"ha":1335,"x_min":109,"x_max":1280,"o":"m 1280 0 l 109 0 l 109 973 l 1227 973 l 1227 732 l 517 732 l 517 580 l 1117 580 l 1117 393 l 517 393 l 517 241 l 1280 241 l 1280 0 m 985 1061 l 404 1061 l 404 1228 l 985 1228 l 985 1061 z "},"ĕ":{"ha":1335,"x_min":109,"x_max":1280,"o":"m 1280 0 l 109 0 l 109 973 l 1227 973 l 1227 732 l 517 732 l 517 580 l 1117 580 l 1117 393 l 517 393 l 517 241 l 1280 241 l 1280 0 m 694 1061 q 558 1093 614 1061 q 474 1181 503 1126 q 446 1302 446 1236 l 581 1302 q 611 1216 581 1251 q 694 1181 641 1181 q 778 1216 748 1181 q 808 1302 808 1251 l 944 1302 q 915 1181 944 1236 q 831 1093 886 1126 q 694 1061 775 1061 z "},"ė":{"ha":1335,"x_min":109,"x_max":1280,"o":"m 1280 0 l 109 0 l 109 973 l 1227 973 l 1227 732 l 517 732 l 517 580 l 1117 580 l 1117 393 l 517 393 l 517 241 l 1280 241 l 1280 0 m 799 1061 l 591 1061 l 591 1269 l 799 1269 l 799 1061 z "},"ę":{"ha":1335,"x_min":109,"x_max":1280,"o":"m 1078 -282 q 1001 -263 1031 -282 q 935 -144 935 -222 q 936 -103 935 -143 q 999 0 937 -63 l 109 0 l 109 973 l 1227 973 l 1227 732 l 517 732 l 517 580 l 1117 580 l 1117 393 l 517 393 l 517 241 l 1280 241 l 1280 0 l 1106 0 q 1084 -77 1084 -45 q 1098 -119 1084 -102 q 1171 -149 1122 -149 q 1210 -144 1189 -149 l 1210 -256 q 1078 -282 1133 -282 z "},"ě":{"ha":1335,"x_min":109,"x_max":1280,"o":"m 1280 0 l 109 0 l 109 973 l 1227 973 l 1227 732 l 517 732 l 517 580 l 1117 580 l 1117 393 l 517 393 l 517 241 l 1280 241 l 1280 0 m 779 1061 l 610 1061 l 405 1302 l 602 1302 l 694 1200 l 787 1302 l 984 1302 l 779 1061 z "},"ĝ":{"ha":1452,"x_min":54,"x_max":1398,"o":"m 736 -21 q 205 127 375 -21 q 54 486 54 259 q 205 844 54 713 q 736 993 375 993 q 1078 947 941 993 q 1292 821 1214 901 q 1398 637 1369 741 l 961 637 q 736 732 892 732 q 518 647 588 732 q 463 486 463 579 q 518 325 463 393 q 736 240 588 240 q 915 261 855 240 q 1003 315 975 281 l 844 315 l 844 486 l 1398 486 l 1398 -1 l 1228 -1 l 1194 94 q 736 -21 1031 -21 m 1015 1060 l 819 1060 l 726 1162 l 633 1060 l 436 1060 l 642 1301 l 810 1301 l 1015 1060 z "},"ğ":{"ha":1452,"x_min":54,"x_max":1398,"o":"m 736 -21 q 205 127 375 -21 q 54 486 54 258 q 205 844 54 713 q 736 992 375 992 q 1078 946 941 992 q 1292 821 1214 901 q 1398 637 1369 741 l 961 637 q 736 732 892 732 q 518 646 588 732 q 463 486 463 578 q 518 325 463 393 q 736 239 588 239 q 915 260 855 239 q 1003 315 975 281 l 844 315 l 844 486 l 1398 486 l 1398 -1 l 1228 -1 l 1194 94 q 736 -21 1031 -21 m 726 1060 q 590 1093 645 1060 q 506 1180 534 1125 q 477 1301 477 1234 l 612 1301 q 642 1214 612 1249 q 726 1179 673 1179 q 809 1214 779 1179 q 840 1301 840 1249 l 975 1301 q 946 1180 975 1234 q 862 1093 918 1125 q 726 1060 806 1060 z "},"ġ":{"ha":1452,"x_min":54,"x_max":1398,"o":"m 736 -21 q 205 127 375 -21 q 54 486 54 258 q 205 844 54 713 q 736 993 375 993 q 1078 947 941 993 q 1292 821 1214 901 q 1398 637 1369 741 l 961 637 q 736 732 892 732 q 518 647 588 732 q 463 486 463 578 q 518 325 463 393 q 736 239 588 239 q 915 260 855 239 q 1003 315 975 281 l 844 315 l 844 486 l 1398 486 l 1398 -1 l 1228 -1 l 1194 94 q 736 -21 1031 -21 m 830 1060 l 622 1060 l 622 1268 l 830 1268 l 830 1060 z "},"ģ":{"ha":1452,"x_min":54,"x_max":1398,"o":"m 736 -20 q 205 129 375 -20 q 54 487 54 260 q 205 846 54 714 q 736 994 375 994 q 1078 948 941 994 q 1292 822 1214 902 q 1398 639 1369 743 l 961 639 q 736 733 892 733 q 518 648 588 733 q 463 487 463 580 q 518 326 463 394 q 736 241 588 241 q 915 262 855 241 q 1003 316 975 283 l 844 316 l 844 487 l 1398 487 l 1398 1 l 1228 1 l 1194 95 q 736 -20 1031 -20 m 632 -463 l 632 -370 q 706 -347 686 -370 q 726 -287 726 -324 l 632 -287 l 632 -100 l 819 -100 l 819 -287 q 792 -396 819 -357 q 722 -449 765 -434 q 632 -463 680 -463 z "},"ĥ":{"ha":1546,"x_min":109,"x_max":1438,"o":"m 1438 0 l 1029 0 l 1029 393 l 517 393 l 517 0 l 109 0 l 109 973 l 517 973 l 517 580 l 1029 580 l 1029 973 l 1438 973 l 1438 0 m 1063 1061 l 866 1061 l 773 1163 l 681 1061 l 484 1061 l 689 1302 l 858 1302 l 1063 1061 z "},"ħ":{"ha":1656,"x_min":81,"x_max":1575,"o":"m 1493 0 l 1084 0 l 1084 393 l 572 393 l 572 0 l 163 0 l 163 681 l 81 681 l 81 868 l 163 868 l 163 973 l 572 973 l 572 868 l 1084 868 l 1084 973 l 1493 973 l 1493 868 l 1575 868 l 1575 681 l 1493 681 l 1493 0 m 1084 580 l 1084 681 l 572 681 l 572 580 l 1084 580 z "},"ĩ":{"ha":625,"x_min":43,"x_max":582,"o":"m 517 0 l 109 0 l 109 973 l 517 973 l 517 0 m 463 1061 q 327 1093 416 1061 q 219 1118 261 1118 q 176 1061 178 1118 l 43 1061 q 134 1240 43 1218 q 181 1246 157 1246 q 313 1221 227 1246 q 405 1203 377 1203 q 434 1209 420 1203 q 449 1244 449 1215 l 582 1244 q 498 1065 582 1084 q 463 1061 481 1061 z "},"ī":{"ha":625,"x_min":22,"x_max":603,"o":"m 517 0 l 109 0 l 109 973 l 517 973 l 517 0 m 603 1061 l 22 1061 l 22 1228 l 603 1228 l 603 1061 z "},"ĭ":{"ha":625,"x_min":63,"x_max":562,"o":"m 516 0 l 108 0 l 108 973 l 516 973 l 516 0 m 312 1061 q 176 1093 232 1061 q 92 1181 121 1126 q 63 1302 63 1236 l 198 1302 q 229 1216 198 1251 q 312 1181 259 1181 q 396 1216 366 1181 q 426 1302 426 1251 l 562 1302 q 533 1181 562 1236 q 448 1093 504 1126 q 312 1061 393 1061 z "},"į":{"ha":625,"x_min":109,"x_max":517,"o":"m 294 -283 q 216 -264 247 -283 q 151 -146 151 -223 q 151 -104 151 -144 q 214 -1 151 -64 l 109 -1 l 109 972 l 517 972 l 517 -1 l 321 -1 q 298 -78 298 -45 q 313 -120 298 -103 q 386 -149 336 -149 q 425 -145 404 -149 l 425 -256 q 294 -283 349 -283 z "},"ĳ":{"ha":1872,"x_min":109,"x_max":1811,"o":"m 517 -1 l 109 -1 l 109 972 l 517 972 l 517 -1 m 1188 -21 q 591 289 680 -21 q 565 486 565 381 l 973 486 q 1008 325 973 385 q 1188 240 1056 240 q 1369 325 1320 240 q 1403 486 1403 385 l 1403 972 l 1811 972 l 1811 475 q 1691 127 1811 251 q 1188 -21 1545 -21 z "},"ĵ":{"ha":1349,"x_min":41,"x_max":1373,"o":"m 664 -21 q 163 127 308 -21 q 41 486 41 252 l 449 486 q 484 325 449 385 q 664 240 533 240 q 845 325 796 240 q 880 486 880 386 l 880 972 l 1288 972 l 1288 480 q 1166 127 1288 252 q 664 -21 1021 -21 m 1373 1060 l 1176 1060 l 1084 1162 l 991 1060 l 793 1060 l 999 1301 l 1168 1301 l 1373 1060 z "},"ķ":{"ha":1716,"x_min":109,"x_max":1706,"o":"m 1706 0 l 1176 0 l 758 326 l 517 161 l 517 0 l 109 0 l 109 972 l 517 972 l 517 522 l 1172 972 l 1706 972 l 1009 497 l 1706 0 m 745 -465 l 745 -371 q 818 -348 798 -371 q 838 -288 838 -325 l 745 -288 l 745 -100 l 932 -100 l 932 -288 q 905 -396 932 -358 q 834 -450 878 -435 q 745 -465 791 -465 z "},"ĺ":{"ha":1272,"x_min":109,"x_max":1244,"o":"m 1244 0 l 109 0 l 109 973 l 517 973 l 517 241 l 1244 241 l 1244 0 m 517 1061 l 346 1061 l 435 1302 l 719 1302 l 517 1061 z "},"ļ":{"ha":1272,"x_min":109,"x_max":1244,"o":"m 1244 -1 l 109 -1 l 109 972 l 517 972 l 517 240 l 1244 240 l 1244 -1 m 583 -465 l 583 -371 q 656 -348 636 -371 q 677 -288 677 -326 l 583 -288 l 583 -100 l 770 -100 l 770 -288 q 743 -397 770 -359 q 673 -450 716 -435 q 583 -465 630 -465 z "},"ľ":{"ha":1272,"x_min":109,"x_max":1244,"o":"m 1244 0 l 109 0 l 109 973 l 517 973 l 517 241 l 1244 241 l 1244 0 m 842 609 l 842 703 q 916 725 896 703 q 936 785 936 748 l 842 785 l 842 973 l 1029 973 l 1029 785 q 1002 676 1029 715 q 932 624 975 638 q 842 609 890 609 z "},"ŀ":{"ha":1272,"x_min":109,"x_max":1244,"o":"m 1244 0 l 109 0 l 109 973 l 517 973 l 517 241 l 1244 241 l 1244 0 m 954 551 l 746 551 l 746 760 l 954 760 l 954 551 z "},"ł":{"ha":1363,"x_min":81,"x_max":1336,"o":"m 1336 0 l 200 0 l 200 257 l 81 196 l 81 408 l 200 469 l 200 973 l 608 973 l 608 680 l 987 874 l 987 662 l 608 467 l 608 241 l 1336 241 l 1336 0 z "},"ń":{"ha":1661,"x_min":109,"x_max":1552,"o":"m 1552 0 l 1067 0 l 517 659 l 517 0 l 109 0 l 109 973 l 594 973 l 1144 318 l 1144 973 l 1552 973 l 1552 0 m 857 1061 l 685 1061 l 774 1302 l 1059 1302 l 857 1061 z "},"ņ":{"ha":1661,"x_min":109,"x_max":1552,"o":"m 1552 -1 l 1067 -1 l 517 659 l 517 -1 l 109 -1 l 109 972 l 594 972 l 1144 317 l 1144 972 l 1552 972 l 1552 -1 m 736 -465 l 736 -371 q 810 -348 790 -371 q 830 -288 830 -326 l 736 -288 l 736 -100 l 924 -100 l 924 -288 q 897 -397 924 -359 q 827 -450 869 -435 q 736 -465 784 -465 z "},"ň":{"ha":1661,"x_min":109,"x_max":1552,"o":"m 1552 0 l 1067 0 l 517 659 l 517 0 l 109 0 l 109 973 l 594 973 l 1144 318 l 1144 973 l 1552 973 l 1552 0 m 915 1061 l 746 1061 l 541 1302 l 738 1302 l 830 1200 l 923 1302 l 1120 1302 l 915 1061 z "},"ŋ":{"ha":1661,"x_min":109,"x_max":1552,"o":"m 942 -467 l 942 -205 q 1079 -187 1036 -205 q 1133 -124 1121 -169 q 1144 0 1144 -80 l 517 659 l 517 0 l 109 0 l 109 972 l 594 972 l 1144 377 l 1144 972 l 1552 972 l 1552 -7 q 1524 -240 1552 -149 q 1426 -381 1495 -332 q 1239 -449 1357 -431 q 942 -467 1120 -467 z "},"ō":{"ha":1472,"x_min":54,"x_max":1417,"o":"m 736 -21 q 205 127 375 -21 q 54 486 54 259 q 205 844 54 713 q 736 993 375 993 q 1267 844 1097 993 q 1417 486 1417 713 q 1267 127 1417 259 q 736 -21 1097 -21 m 736 240 q 953 325 884 240 q 1008 486 1008 393 q 953 647 1008 578 q 736 732 884 732 q 518 647 588 732 q 463 486 463 578 q 518 325 463 393 q 736 240 588 240 m 1026 1060 l 446 1060 l 446 1227 l 1026 1227 l 1026 1060 z "},"ŏ":{"ha":1472,"x_min":54,"x_max":1417,"o":"m 736 -21 q 205 127 375 -21 q 54 486 54 258 q 205 844 54 713 q 736 993 375 993 q 1267 844 1097 993 q 1417 486 1417 713 q 1267 127 1417 258 q 736 -21 1097 -21 m 736 239 q 953 325 884 239 q 1008 486 1008 393 q 953 647 1008 578 q 736 732 884 732 q 518 647 588 732 q 463 486 463 578 q 518 325 463 393 q 736 239 588 239 m 736 1060 q 600 1093 655 1060 q 515 1180 544 1125 q 486 1301 486 1235 l 622 1301 q 652 1214 622 1249 q 736 1179 682 1179 q 820 1214 789 1179 q 850 1301 850 1249 l 985 1301 q 956 1180 985 1235 q 872 1093 927 1125 q 736 1060 817 1060 z "},"ő":{"ha":1472,"x_min":54,"x_max":1417,"o":"m 736 -21 q 205 127 375 -21 q 54 486 54 259 q 205 844 54 713 q 736 993 375 993 q 1267 844 1097 993 q 1417 486 1417 713 q 1267 127 1417 259 q 736 -21 1097 -21 m 736 240 q 953 325 884 240 q 1008 486 1008 393 q 953 647 1008 579 q 736 732 884 732 q 518 647 588 732 q 463 486 463 579 q 518 325 463 393 q 736 240 588 240 m 639 1060 l 468 1060 l 557 1301 l 842 1301 l 639 1060 m 956 1060 l 785 1060 l 873 1301 l 1158 1301 l 956 1060 z "},"œ":{"ha":2302,"x_min":54,"x_max":2247,"o":"m 736 -21 q 205 127 375 -21 q 54 486 54 258 q 205 844 54 713 q 736 992 375 992 q 1114 933 970 992 l 1114 972 l 2193 972 l 2193 732 l 1522 732 l 1522 579 l 2083 579 l 2083 392 l 1522 392 l 1522 239 l 2247 239 l 2247 -1 l 1114 -1 l 1114 38 q 736 -21 970 -21 m 736 239 q 953 325 884 239 q 1008 486 1008 393 q 953 646 1008 578 q 736 732 884 732 q 518 646 588 732 q 463 486 463 578 q 518 325 463 393 q 736 239 588 239 z "},"ŕ":{"ha":1491,"x_min":109,"x_max":1437,"o":"m 1437 0 l 1051 0 q 1014 94 1025 37 q 985 180 1004 138 q 920 251 966 222 q 782 281 873 279 l 517 281 l 517 0 l 109 0 l 109 973 l 772 973 q 1157 938 1010 973 q 1370 826 1303 902 q 1437 627 1437 749 q 1391 454 1437 524 q 1244 344 1344 385 q 1370 248 1341 304 q 1405 125 1398 192 q 1437 0 1412 65 m 517 521 l 750 522 q 904 530 848 522 q 987 554 960 539 q 1021 588 1014 570 q 1029 627 1029 607 q 1021 665 1029 646 q 987 700 1014 684 q 904 724 960 715 q 750 732 848 732 l 517 732 l 517 521 m 791 1061 l 620 1061 l 709 1302 l 994 1302 l 791 1061 z "},"ŗ":{"ha":1491,"x_min":109,"x_max":1437,"o":"m 1437 -1 l 1051 -1 q 1014 93 1025 36 q 985 180 1004 137 q 920 251 966 222 q 782 280 873 279 l 517 280 l 517 -1 l 109 -1 l 109 972 l 772 972 q 1157 937 1010 972 q 1370 825 1303 901 q 1437 627 1437 749 q 1391 454 1437 524 q 1244 344 1344 385 q 1370 247 1341 303 q 1405 125 1398 191 q 1437 -1 1412 64 m 750 522 q 904 530 848 522 q 987 554 960 539 q 1021 588 1014 569 q 1029 627 1029 607 q 1021 665 1029 646 q 987 699 1014 684 q 904 723 960 714 q 750 732 848 732 l 517 732 l 517 521 l 750 522 m 679 -465 l 679 -371 q 752 -348 732 -371 q 772 -288 772 -325 l 679 -288 l 679 -100 l 866 -100 l 866 -288 q 839 -396 866 -358 q 769 -450 812 -435 q 679 -465 726 -465 z "},"ř":{"ha":1491,"x_min":109,"x_max":1437,"o":"m 1437 0 l 1051 0 q 1014 94 1025 37 q 985 180 1004 138 q 920 251 966 222 q 782 281 873 279 l 517 281 l 517 0 l 109 0 l 109 973 l 772 973 q 1157 938 1010 973 q 1370 826 1303 902 q 1437 627 1437 749 q 1391 454 1437 524 q 1244 344 1344 385 q 1370 248 1341 304 q 1405 125 1398 192 q 1437 0 1412 65 m 517 521 l 750 522 q 904 530 848 522 q 987 554 960 539 q 1021 588 1014 570 q 1029 627 1029 607 q 1021 665 1029 646 q 987 700 1014 684 q 904 724 960 715 q 750 732 848 732 l 517 732 l 517 521 m 857 1061 l 688 1061 l 483 1302 l 680 1302 l 772 1200 l 865 1302 l 1062 1302 l 857 1061 z "},"ś":{"ha":1287,"x_min":54,"x_max":1233,"o":"m 643 -21 q 325 21 446 -21 q 141 138 204 64 q 56 309 78 212 l 490 309 q 643 240 538 240 q 796 309 748 240 q 800 321 800 316 q 752 349 800 340 q 607 363 703 358 q 352 389 486 368 q 54 627 54 435 q 56 663 54 644 q 141 834 78 760 q 325 950 204 908 q 643 993 446 993 q 961 950 840 993 q 1145 834 1082 908 q 1230 663 1208 760 l 796 663 q 643 732 748 732 q 490 663 538 732 q 486 652 486 657 q 533 628 486 636 q 670 615 579 621 q 863 597 760 610 q 1054 555 965 585 q 1194 466 1143 525 q 1233 351 1233 420 q 1230 309 1233 331 q 1145 138 1208 212 q 961 21 1082 64 q 643 -21 840 -21 m 729 1060 l 558 1060 l 646 1301 l 931 1301 l 729 1060 z "},"ŝ":{"ha":1287,"x_min":54,"x_max":1233,"o":"m 643 -21 q 325 21 446 -21 q 141 138 204 64 q 56 309 78 212 l 490 309 q 643 240 538 240 q 796 309 748 240 q 800 321 800 316 q 752 349 800 340 q 607 363 703 358 q 352 389 486 368 q 54 628 54 435 q 56 663 54 645 q 141 834 78 760 q 325 950 204 908 q 643 993 446 993 q 961 950 840 993 q 1145 834 1082 908 q 1230 663 1208 760 l 796 663 q 643 732 748 732 q 490 663 538 732 q 486 653 486 657 q 533 628 486 636 q 670 615 579 621 q 863 597 760 610 q 1054 555 965 585 q 1194 466 1143 525 q 1233 351 1233 420 q 1230 309 1233 331 q 1145 138 1208 212 q 961 21 1082 64 q 643 -21 840 -21 m 933 1060 l 736 1060 l 644 1162 l 551 1060 l 353 1060 l 559 1301 l 728 1301 l 933 1060 z "},"ş":{"ha":1287,"x_min":54,"x_max":1233,"o":"m 606 -244 l 593 -244 q 532 -241 559 -244 l 506 -239 l 506 -175 l 525 -178 q 587 -182 556 -182 q 631 -179 607 -182 q 673 -165 654 -176 q 692 -131 692 -154 q 678 -97 692 -107 q 636 -87 664 -87 q 604 -90 621 -87 q 573 -98 587 -94 l 559 -102 l 578 -28 l 588 -26 q 613 -23 597 -24 l 613 -19 q 212 78 338 -12 q 56 311 85 168 l 490 311 q 643 241 538 241 q 796 311 747 241 q 800 324 800 318 q 752 351 800 342 q 607 364 703 359 q 352 390 486 370 q 130 473 218 411 q 54 629 54 527 q 56 664 54 646 q 141 835 78 761 q 325 952 204 909 q 643 994 446 994 q 961 952 840 994 q 1145 835 1082 909 q 1230 664 1208 761 l 796 664 q 643 734 747 734 q 490 664 538 734 q 486 654 486 659 q 533 630 486 638 q 670 617 579 622 q 863 600 760 612 q 1054 557 965 587 q 1194 468 1143 526 q 1233 353 1233 422 q 1230 311 1233 333 q 1074 78 1200 168 q 673 -19 948 -12 l 673 -22 q 729 -34 703 -24 q 773 -68 755 -45 q 790 -131 790 -91 q 761 -200 790 -176 q 690 -234 732 -224 q 606 -244 648 -243 z "},"š":{"ha":1287,"x_min":54,"x_max":1233,"o":"m 643 -21 q 325 21 446 -21 q 141 138 204 64 q 56 309 78 212 l 490 309 q 643 240 538 240 q 796 309 748 240 q 800 321 800 316 q 752 349 800 340 q 607 363 703 358 q 352 389 486 368 q 54 627 54 435 q 56 663 54 644 q 141 834 78 760 q 325 950 204 908 q 643 993 446 993 q 961 950 840 993 q 1145 834 1082 908 q 1230 663 1208 760 l 796 663 q 643 732 748 732 q 490 663 538 732 q 486 652 486 657 q 533 628 486 636 q 670 615 579 621 q 863 597 760 610 q 1054 555 965 585 q 1194 466 1143 525 q 1233 351 1233 420 q 1230 309 1233 331 q 1145 138 1208 212 q 961 21 1082 64 q 643 -21 840 -21 m 728 1060 l 559 1060 l 353 1301 l 551 1301 l 644 1199 l 736 1301 l 933 1301 l 728 1060 z "},"ţ":{"ha":1252,"x_min":41,"x_max":1211,"o":"m 589 -245 l 575 -246 q 515 -243 542 -246 l 489 -240 l 489 -176 l 508 -179 q 570 -184 539 -184 q 613 -181 590 -184 q 656 -166 637 -178 q 675 -132 675 -155 q 661 -99 675 -109 q 619 -89 647 -89 q 587 -92 604 -89 q 556 -100 570 -95 l 543 -104 l 562 -29 l 571 -28 q 595 -24 580 -26 l 595 0 l 422 0 l 422 732 l 41 732 l 41 972 l 1211 972 l 1211 732 l 830 732 l 830 0 l 656 0 l 656 -23 q 711 -36 685 -25 q 755 -69 738 -46 q 773 -132 773 -92 q 744 -201 773 -177 q 673 -235 715 -225 q 589 -245 631 -245 z "},"ť":{"ha":1252,"x_min":41,"x_max":1211,"o":"m 830 0 l 422 0 l 422 732 l 41 732 l 41 973 l 1211 973 l 1211 732 l 830 732 l 830 0 m 711 1061 l 542 1061 l 336 1302 l 534 1302 l 626 1200 l 719 1302 l 916 1302 l 711 1061 z "},"ŧ":{"ha":1252,"x_min":41,"x_max":1211,"o":"m 830 0 l 422 0 l 422 307 l 203 307 l 203 486 l 422 486 l 422 732 l 41 732 l 41 973 l 1211 973 l 1211 732 l 830 732 l 830 486 l 1049 486 l 1049 307 l 830 307 l 830 0 z "},"ũ":{"ha":1369,"x_min":61,"x_max":1308,"o":"m 684 -21 q 183 127 328 -21 q 61 486 61 252 l 61 972 l 469 972 l 469 486 q 504 325 469 385 q 684 240 553 240 q 865 325 817 240 q 900 486 900 386 l 900 972 l 1308 972 l 1308 480 q 1187 127 1308 252 q 684 -21 1041 -21 m 833 1060 q 699 1092 788 1060 q 591 1118 631 1118 q 549 1060 550 1118 l 415 1060 q 506 1239 415 1217 q 555 1245 529 1245 q 685 1221 601 1245 q 777 1202 750 1202 q 806 1208 791 1202 q 821 1243 821 1214 l 954 1243 q 869 1064 954 1082 q 833 1060 852 1060 z "},"ū":{"ha":1369,"x_min":61,"x_max":1308,"o":"m 684 -21 q 183 127 328 -21 q 61 486 61 252 l 61 972 l 469 972 l 469 486 q 504 325 469 385 q 684 240 553 240 q 865 325 817 240 q 900 486 900 386 l 900 972 l 1308 972 l 1308 481 q 1187 127 1308 252 q 684 -21 1042 -21 m 975 1060 l 395 1060 l 395 1228 l 975 1228 l 975 1060 z "},"ŭ":{"ha":1369,"x_min":61,"x_max":1308,"o":"m 684 -21 q 183 127 328 -21 q 61 486 61 252 l 61 972 l 469 972 l 469 486 q 504 325 469 385 q 684 240 553 240 q 865 325 817 240 q 900 486 900 386 l 900 972 l 1308 972 l 1308 480 q 1187 127 1308 252 q 684 -21 1041 -21 m 684 1060 q 548 1093 604 1060 q 464 1180 493 1125 q 435 1301 435 1235 l 570 1301 q 601 1214 570 1249 q 684 1179 631 1179 q 768 1214 738 1179 q 798 1301 798 1249 l 934 1301 q 905 1180 934 1235 q 821 1093 876 1125 q 684 1060 765 1060 z "},"ů":{"ha":1369,"x_min":61,"x_max":1308,"o":"m 684 -21 q 183 127 328 -21 q 61 486 61 252 l 61 972 l 469 972 l 469 486 q 504 325 469 385 q 684 240 553 240 q 865 325 817 240 q 900 486 900 386 l 900 972 l 1308 972 l 1308 480 q 1187 127 1308 252 q 684 -21 1041 -21 m 684 1060 q 575 1105 621 1060 q 530 1215 530 1150 q 575 1323 530 1278 q 684 1369 621 1369 q 794 1323 749 1369 q 839 1215 839 1278 q 794 1105 839 1150 q 684 1060 749 1060 m 684 1137 q 739 1160 716 1137 q 762 1215 762 1183 q 739 1269 762 1246 q 684 1291 716 1291 q 630 1269 652 1291 q 608 1215 608 1246 q 630 1160 608 1183 q 684 1137 652 1137 z "},"ű":{"ha":1369,"x_min":61,"x_max":1308,"o":"m 684 -21 q 183 127 328 -21 q 61 486 61 252 l 61 972 l 469 972 l 469 486 q 504 325 469 385 q 684 240 553 240 q 865 325 817 240 q 900 486 900 386 l 900 972 l 1308 972 l 1308 481 q 1187 127 1308 252 q 684 -21 1041 -21 m 604 1060 l 433 1060 l 521 1301 l 806 1301 l 604 1060 m 920 1060 l 749 1060 l 838 1301 l 1122 1301 l 920 1060 z "},"ų":{"ha":1369,"x_min":61,"x_max":1308,"o":"m 871 -283 q 781 -257 829 -283 q 726 -145 726 -229 q 774 -18 726 -78 q 684 -21 731 -21 q 183 127 329 -21 q 61 486 61 251 l 61 972 l 469 972 l 469 486 q 504 325 469 384 q 684 240 553 240 q 865 325 817 240 q 900 486 900 386 l 900 972 l 1308 972 l 1308 477 q 1274 264 1308 363 q 1149 95 1239 165 q 896 -5 1059 24 q 875 -78 875 -47 q 890 -121 875 -104 q 962 -149 913 -149 q 1002 -145 980 -149 l 1002 -256 q 871 -283 926 -283 z "},"ŵ":{"ha":2117,"x_min":10,"x_max":2107,"o":"m 1639 0 l 1299 0 l 1059 632 l 819 0 l 478 0 l 10 972 l 424 972 l 668 355 l 930 972 l 1187 972 l 1449 355 l 1693 972 l 2107 972 l 1639 0 m 1348 1061 l 1152 1061 l 1059 1163 l 966 1061 l 769 1061 l 974 1302 l 1143 1302 l 1348 1061 z "},"ŷ":{"ha":1490,"x_min":10,"x_max":1480,"o":"m 949 0 l 541 0 l 541 461 l 10 973 l 463 973 l 745 682 l 1027 973 l 1480 973 l 949 461 l 949 0 m 1035 1061 l 838 1061 l 745 1163 l 652 1061 l 455 1061 l 661 1302 l 829 1302 l 1035 1061 z "},"ź":{"ha":1246,"x_min":61,"x_max":1185,"o":"m 1185 0 l 61 0 l 61 240 l 705 732 l 61 732 l 61 972 l 1185 972 l 1185 732 l 541 240 l 1185 240 l 1185 0 m 709 1061 l 538 1061 l 626 1302 l 911 1302 l 709 1061 z "},"ż":{"ha":1246,"x_min":61,"x_max":1185,"o":"m 1185 0 l 61 0 l 61 240 l 705 732 l 61 732 l 61 972 l 1185 972 l 1185 732 l 541 240 l 1185 240 l 1185 0 m 727 1061 l 519 1061 l 519 1269 l 727 1269 l 727 1061 z "},"ž":{"ha":1246,"x_min":61,"x_max":1185,"o":"m 1185 0 l 61 0 l 61 240 l 705 732 l 61 732 l 61 972 l 1185 972 l 1185 732 l 541 240 l 1185 240 l 1185 0 m 707 1061 l 539 1061 l 334 1302 l 530 1302 l 623 1200 l 716 1302 l 913 1302 l 707 1061 z "},"ĸ":{"ha":1716,"x_min":109,"x_max":1706,"o":"m 1706 0 l 1176 0 l 758 326 l 517 161 l 517 0 l 109 0 l 109 973 l 517 973 l 517 523 l 1172 973 l 1706 973 l 1009 497 l 1706 0 z "},"ŉ":{"ha":1889,"x_min":41,"x_max":1781,"o":"m 1781 -1 l 1295 -1 l 745 659 l 745 -1 l 337 -1 l 337 972 l 823 972 l 1372 317 l 1372 972 l 1781 972 l 1781 -1 m 41 608 l 41 702 q 114 725 94 702 q 134 785 134 747 l 41 785 l 41 972 l 228 972 l 228 785 q 201 676 228 714 q 131 623 174 637 q 41 608 88 608 z "}}}
